<?xml version="1.0"?>


<svg version="1.1" id="Layer_1" xmlns="http://www.w3.org/2000/svg" xmlns:xlink="http://www.w3.org/1999/xlink" x="0px" y="0px" width="536.373px" height="128px" viewBox="0 0 536.373 128" enable-background="new 0 0 536.373 128" xml:space="preserve">
<g>
&#x9;<path fill="#FFFFFF" d="M154.359,38.646c-0.058-0.131-0.154-0.364-0.296-0.701c-0.14-0.336-0.313-0.745-0.518-1.231&#xA;&#x9;&#x9;c-0.205-0.485-0.43-1.022-0.672-1.61c-0.243-0.588-0.495-1.199-0.756-1.834h-7.028l-2.239,5.377h-3.388&#xA;&#x9;&#x9;c0.074-0.168,0.252-0.584,0.532-1.246s0.63-1.484,1.05-2.465c0.42-0.979,0.887-2.071,1.4-3.275c0.513-1.204,1.04-2.432,1.582-3.682&#xA;&#x9;&#x9;c0.541-1.25,1.067-2.479,1.582-3.683c0.513-1.204,0.979-2.296,1.398-3.276c0.42-0.979,0.771-1.801,1.05-2.463&#xA;&#x9;&#x9;c0.28-0.664,0.457-1.078,0.532-1.246c0.074,0.168,0.257,0.582,0.546,1.246c0.289,0.662,0.646,1.483,1.064,2.463&#xA;&#x9;&#x9;c0.419,0.98,0.887,2.072,1.399,3.276c0.514,1.204,1.039,2.433,1.582,3.683c0.541,1.25,1.068,2.478,1.581,3.682&#xA;&#x9;&#x9;c0.515,1.204,0.98,2.296,1.4,3.275c0.42,0.98,0.771,1.803,1.05,2.465c0.28,0.662,0.457,1.078,0.532,1.246H154.359z M146.267,30.387&#xA;&#x9;&#x9;h4.647l-2.018-4.871c-0.019-0.02-0.063-0.146-0.14-0.379c-0.076-0.232-0.131-0.443-0.168-0.63c-0.038,0.187-0.094,0.397-0.168,0.63&#xA;&#x9;&#x9;c-0.075,0.233-0.112,0.359-0.112,0.379L146.267,30.387z"></path>
&#x9;<path fill="#FFFFFF" d="M172.138,19.382l-1.23,2.8c-0.784-0.279-1.561-0.504-2.324-0.672c-0.766-0.168-1.475-0.252-2.128-0.252&#xA;&#x9;&#x9;c-1.14,0-2.039,0.225-2.702,0.672c-0.663,0.448-0.993,1.018-0.993,1.709c0,0.598,0.246,1.082,0.741,1.455s1.115,0.709,1.862,1.008&#xA;&#x9;&#x9;c0.746,0.299,1.554,0.603,2.422,0.91c0.867,0.309,1.676,0.705,2.422,1.19s1.367,1.102,1.861,1.848&#xA;&#x9;&#x9;c0.494,0.747,0.741,1.699,0.741,2.856c0,0.896-0.163,1.707-0.488,2.436c-0.327,0.729-0.817,1.354-1.471,1.876&#xA;&#x9;&#x9;c-0.653,0.523-1.479,0.929-2.479,1.218s-2.17,0.435-3.515,0.435c-0.821,0-1.567-0.056-2.239-0.168s-1.273-0.253-1.808-0.421&#xA;&#x9;&#x9;c-0.53-0.168-1.003-0.35-1.414-0.545c-0.409-0.196-0.766-0.387-1.063-0.574l1.483-2.996c0.784,0.43,1.625,0.761,2.521,0.994&#xA;&#x9;&#x9;c0.896,0.232,1.689,0.35,2.38,0.35c0.336,0,0.771-0.037,1.303-0.111s1.051-0.215,1.555-0.42s0.938-0.485,1.302-0.841&#xA;&#x9;&#x9;c0.364-0.354,0.546-0.812,0.546-1.372c0-0.652-0.247-1.189-0.741-1.609c-0.496-0.42-1.116-0.793-1.862-1.12&#xA;&#x9;&#x9;s-1.554-0.648-2.423-0.966c-0.866-0.317-1.675-0.695-2.422-1.135c-0.746-0.438-1.367-0.979-1.86-1.623&#xA;&#x9;&#x9;c-0.495-0.645-0.742-1.461-0.742-2.451c0-0.709,0.141-1.403,0.42-2.086c0.28-0.681,0.705-1.291,1.272-1.834&#xA;&#x9;&#x9;c0.57-0.541,1.279-0.979,2.13-1.315c0.85-0.336,1.852-0.504,3.01-0.504c0.729,0,1.432,0.062,2.113,0.182&#xA;&#x9;&#x9;c0.681,0.121,1.293,0.257,1.834,0.406c0.542,0.149,0.989,0.294,1.345,0.435C171.851,19.283,172.064,19.364,172.138,19.382z"></path>
&#x9;<path fill="#FFFFFF" d="M174.742,28.482c0-1.418,0.274-2.762,0.826-4.032c0.551-1.271,1.298-2.38,2.239-3.332&#xA;&#x9;&#x9;c0.943-0.952,2.045-1.708,3.306-2.269c1.26-0.56,2.606-0.84,4.045-0.84c1.419,0,2.764,0.28,4.032,0.84&#xA;&#x9;&#x9;c1.27,0.561,2.38,1.316,3.332,2.269c0.951,0.952,1.703,2.063,2.255,3.332c0.55,1.27,0.825,2.612,0.825,4.032&#xA;&#x9;&#x9;c0,1.438-0.275,2.785-0.825,4.045c-0.552,1.261-1.304,2.363-2.255,3.305c-0.952,0.943-2.063,1.686-3.332,2.227&#xA;&#x9;&#x9;s-2.613,0.812-4.032,0.812c-1.438,0-2.785-0.271-4.045-0.812c-1.261-0.541-2.361-1.283-3.306-2.227&#xA;&#x9;&#x9;c-0.941-0.941-1.688-2.044-2.239-3.305C175.017,31.27,174.742,29.92,174.742,28.482z M178.187,28.482&#xA;&#x9;&#x9;c0,0.99,0.183,1.918,0.545,2.785c0.364,0.869,0.869,1.625,1.513,2.269c0.645,0.644,1.391,1.153,2.24,1.526s1.77,0.56,2.758,0.56&#xA;&#x9;&#x9;c0.953,0,1.854-0.187,2.703-0.56c0.849-0.373,1.586-0.883,2.211-1.526c0.626-0.644,1.121-1.399,1.483-2.269&#xA;&#x9;&#x9;c0.364-0.867,0.547-1.795,0.547-2.785c0-0.989-0.188-1.918-0.561-2.787c-0.373-0.867-0.878-1.627-1.512-2.281&#xA;&#x9;&#x9;c-0.636-0.653-1.377-1.167-2.228-1.54c-0.85-0.373-1.76-0.56-2.729-0.56c-0.971,0-1.881,0.187-2.729,0.56&#xA;&#x9;&#x9;c-0.85,0.374-1.587,0.887-2.212,1.54c-0.625,0.652-1.12,1.414-1.484,2.281C178.369,26.564,178.187,27.493,178.187,28.482z"></path>
&#x9;<path fill="#FFFFFF" d="M214.333,37.134c-0.224,0.15-0.537,0.327-0.938,0.532c-0.401,0.206-0.878,0.396-1.428,0.574&#xA;&#x9;&#x9;c-0.551,0.177-1.172,0.326-1.862,0.447c-0.689,0.121-1.429,0.183-2.212,0.183c-1.604,0-3.043-0.274-4.313-0.826&#xA;&#x9;&#x9;c-1.271-0.55-2.342-1.292-3.22-2.226c-0.879-0.934-1.551-2.025-2.018-3.276c-0.467-1.25-0.699-2.565-0.699-3.948&#xA;&#x9;&#x9;c0-1.531,0.279-2.945,0.841-4.242c0.561-1.297,1.319-2.416,2.281-3.359c0.961-0.942,2.081-1.676,3.36-2.198&#xA;&#x9;&#x9;c1.277-0.522,2.646-0.784,4.102-0.784c0.562,0,1.124,0.043,1.693,0.127c0.57,0.084,1.106,0.19,1.61,0.321&#xA;&#x9;&#x9;c0.505,0.131,0.946,0.28,1.33,0.448c0.382,0.168,0.657,0.346,0.825,0.531c-0.168,0.263-0.299,0.477-0.392,0.645&#xA;&#x9;&#x9;c-0.094,0.168-0.191,0.341-0.295,0.518c-0.104,0.179-0.215,0.379-0.336,0.603s-0.293,0.532-0.519,0.924&#xA;&#x9;&#x9;c-0.225-0.149-0.494-0.28-0.813-0.392c-0.317-0.112-0.648-0.2-0.994-0.266s-0.695-0.117-1.049-0.154&#xA;&#x9;&#x9;c-0.355-0.037-0.672-0.057-0.953-0.057c-1.045,0-2.012,0.196-2.897,0.588c-0.887,0.393-1.65,0.91-2.296,1.555&#xA;&#x9;&#x9;c-0.645,0.644-1.147,1.396-1.512,2.254c-0.364,0.859-0.547,1.746-0.547,2.66c0,0.896,0.173,1.769,0.519,2.617&#xA;&#x9;&#x9;c0.346,0.851,0.831,1.602,1.456,2.254c0.625,0.654,1.367,1.182,2.228,1.582c0.856,0.401,1.81,0.603,2.854,0.603&#xA;&#x9;&#x9;c0.599,0,1.176-0.062,1.736-0.183c0.56-0.121,1.054-0.256,1.483-0.405c0.429-0.149,0.778-0.3,1.05-0.448&#xA;&#x9;&#x9;c0.271-0.148,0.416-0.252,0.435-0.309L214.333,37.134z"></path>
&#x9;<path fill="#FFFFFF" d="M216.882,18.234h3.443v20.412h-3.443V18.234z"></path>
&#x9;<path fill="#FFFFFF" d="M237.574,38.646c-0.058-0.131-0.154-0.364-0.294-0.701c-0.141-0.336-0.313-0.745-0.52-1.231&#xA;&#x9;&#x9;c-0.205-0.485-0.43-1.022-0.672-1.61s-0.494-1.199-0.756-1.834h-7.027l-2.24,5.377h-3.389c0.074-0.168,0.252-0.584,0.533-1.246&#xA;&#x9;&#x9;c0.279-0.662,0.629-1.484,1.049-2.465c0.42-0.979,0.887-2.071,1.4-3.275s1.041-2.432,1.582-3.682s1.067-2.479,1.582-3.683&#xA;&#x9;&#x9;c0.514-1.204,0.979-2.296,1.399-3.276c0.42-0.979,0.771-1.801,1.05-2.463c0.28-0.664,0.457-1.078,0.532-1.246&#xA;&#x9;&#x9;c0.074,0.168,0.256,0.582,0.545,1.246c0.29,0.662,0.646,1.483,1.064,2.463c0.419,0.98,0.887,2.072,1.399,3.276&#xA;&#x9;&#x9;c0.514,1.204,1.04,2.433,1.582,3.683c0.541,1.25,1.068,2.478,1.582,3.682c0.515,1.204,0.98,2.296,1.4,3.275&#xA;&#x9;&#x9;c0.42,0.98,0.77,1.803,1.049,2.465c0.28,0.662,0.458,1.078,0.532,1.246H237.574z M229.482,30.387h4.648l-2.017-4.871&#xA;&#x9;&#x9;c-0.02-0.02-0.065-0.146-0.141-0.379c-0.075-0.232-0.131-0.443-0.168-0.63c-0.038,0.187-0.094,0.397-0.168,0.63&#xA;&#x9;&#x9;c-0.075,0.233-0.112,0.359-0.112,0.379L229.482,30.387z"></path>
&#x9;<path fill="#FFFFFF" d="M257.874,37.134c-0.224,0.15-0.536,0.327-0.938,0.532c-0.4,0.206-0.878,0.396-1.428,0.574&#xA;&#x9;&#x9;c-0.551,0.177-1.172,0.326-1.862,0.447c-0.689,0.121-1.428,0.183-2.212,0.183c-1.604,0-3.043-0.274-4.313-0.826&#xA;&#x9;&#x9;c-1.271-0.55-2.343-1.292-3.22-2.226c-0.879-0.934-1.551-2.025-2.017-3.276c-0.467-1.25-0.7-2.565-0.7-3.948&#xA;&#x9;&#x9;c0-1.531,0.28-2.945,0.841-4.242c0.56-1.297,1.319-2.416,2.281-3.359c0.961-0.942,2.081-1.676,3.359-2.198s2.646-0.784,4.103-0.784&#xA;&#x9;&#x9;c0.561,0,1.124,0.043,1.694,0.127c0.568,0.084,1.105,0.19,1.609,0.321s0.946,0.28,1.33,0.448c0.383,0.168,0.657,0.346,0.825,0.531&#xA;&#x9;&#x9;c-0.168,0.263-0.299,0.477-0.392,0.645c-0.094,0.168-0.192,0.341-0.295,0.518c-0.104,0.179-0.215,0.379-0.336,0.603&#xA;&#x9;&#x9;s-0.294,0.532-0.519,0.924c-0.224-0.149-0.495-0.28-0.813-0.392c-0.317-0.112-0.648-0.2-0.993-0.266&#xA;&#x9;&#x9;c-0.346-0.065-0.696-0.117-1.051-0.154s-0.672-0.057-0.951-0.057c-1.046,0-2.012,0.196-2.898,0.588&#xA;&#x9;&#x9;c-0.887,0.393-1.651,0.91-2.296,1.555c-0.645,0.644-1.147,1.396-1.512,2.254c-0.364,0.859-0.546,1.746-0.546,2.66&#xA;&#x9;&#x9;c0,0.896,0.172,1.769,0.518,2.617c0.346,0.851,0.83,1.602,1.456,2.254c0.625,0.654,1.367,1.182,2.227,1.582&#xA;&#x9;&#x9;c0.858,0.401,1.811,0.603,2.855,0.603c0.598,0,1.177-0.062,1.736-0.183s1.054-0.256,1.483-0.405c0.429-0.15,0.778-0.3,1.05-0.448&#xA;&#x9;&#x9;c0.271-0.148,0.415-0.252,0.435-0.309L257.874,37.134z"></path>
&#x9;<path fill="#FFFFFF" d="M260.421,18.234h3.444v20.412h-3.444V18.234z"></path>
&#x9;<path fill="#FFFFFF" d="M267.225,28.482c0-1.418,0.275-2.762,0.826-4.032s1.297-2.38,2.241-3.332&#xA;&#x9;&#x9;c0.942-0.952,2.044-1.708,3.304-2.269c1.26-0.56,2.607-0.84,4.045-0.84c1.42,0,2.764,0.28,4.033,0.84&#xA;&#x9;&#x9;c1.27,0.561,2.379,1.316,3.332,2.269c0.951,0.952,1.703,2.063,2.254,3.332s0.826,2.612,0.826,4.032&#xA;&#x9;&#x9;c0,1.438-0.275,2.785-0.826,4.045c-0.551,1.261-1.303,2.363-2.254,3.305c-0.953,0.943-2.063,1.686-3.332,2.227&#xA;&#x9;&#x9;s-2.613,0.812-4.033,0.812c-1.438,0-2.785-0.271-4.045-0.812s-2.361-1.283-3.304-2.227c-0.943-0.941-1.69-2.044-2.241-3.305&#xA;&#x9;&#x9;C267.5,31.27,267.225,29.92,267.225,28.482z M270.669,28.482c0,0.99,0.183,1.918,0.546,2.785c0.365,0.869,0.869,1.625,1.512,2.269&#xA;&#x9;&#x9;c0.646,0.644,1.393,1.153,2.24,1.526c0.852,0.373,1.77,0.56,2.758,0.56c0.953,0,1.854-0.187,2.703-0.56s1.586-0.883,2.211-1.526&#xA;&#x9;&#x9;s1.121-1.399,1.484-2.269c0.363-0.867,0.547-1.795,0.547-2.785c0-0.989-0.188-1.918-0.561-2.787&#xA;&#x9;&#x9;c-0.373-0.867-0.877-1.627-1.514-2.281c-0.635-0.654-1.377-1.167-2.225-1.54c-0.852-0.373-1.76-0.56-2.73-0.56&#xA;&#x9;&#x9;s-1.881,0.187-2.729,0.56c-0.852,0.374-1.588,0.887-2.213,1.54c-0.625,0.652-1.119,1.414-1.484,2.281&#xA;&#x9;&#x9;C270.852,26.564,270.669,27.493,270.669,28.482z M276.018,17.086c0.43-0.615,0.854-1.24,1.273-1.876&#xA;&#x9;&#x9;c0.42-0.634,0.844-1.269,1.273-1.903h2.885c-0.561,0.635-1.129,1.27-1.707,1.903c-0.58,0.636-1.158,1.261-1.736,1.876H276.018z"></path>
&#x9;<path fill="#FFFFFF" d="M309.477,18.234v21.363c-0.131-0.168-0.42-0.476-0.867-0.924c-0.447-0.447-0.998-0.984-1.65-1.609&#xA;&#x9;&#x9;c-0.654-0.625-1.377-1.316-2.17-2.072c-0.795-0.756-1.604-1.521-2.422-2.296c-0.822-0.774-1.625-1.535-2.408-2.282&#xA;&#x9;&#x9;c-0.785-0.747-1.498-1.434-2.143-2.059s-1.188-1.156-1.625-1.596c-0.438-0.438-0.725-0.742-0.854-0.91&#xA;&#x9;&#x9;c-0.02-0.037-0.094-0.135-0.225-0.293c-0.131-0.16-0.242-0.304-0.336-0.435l0.084,0.896v12.629h-3.416V17.311&#xA;&#x9;&#x9;c0.131,0.168,0.42,0.472,0.867,0.91c0.447,0.438,0.998,0.965,1.652,1.581c0.652,0.616,1.375,1.288,2.17,2.017&#xA;&#x9;&#x9;c0.793,0.728,1.602,1.47,2.422,2.226s1.623,1.503,2.408,2.24c0.783,0.737,1.502,1.409,2.156,2.016&#xA;&#x9;&#x9;c0.652,0.607,1.199,1.125,1.637,1.554c0.439,0.431,0.725,0.729,0.855,0.896l0.531,0.784l-0.084-0.952V18.234H309.477&#xA;&#x9;&#x9;L309.477,18.234z"></path>
&#x9;<path fill="#FFFFFF" d="M141.814,51.834h5.293c2.054,0,3.793,0.313,5.223,0.938c1.428,0.627,2.59,1.434,3.484,2.422&#xA;&#x9;&#x9;c0.896,0.99,1.546,2.115,1.946,3.375c0.401,1.26,0.604,2.516,0.604,3.766c0,1.531-0.275,2.908-0.826,4.13s-1.293,2.264-2.228,3.121&#xA;&#x9;&#x9;c-0.934,0.859-2.021,1.518-3.262,1.975c-1.242,0.457-2.553,0.687-3.934,0.687h-6.302L141.814,51.834L141.814,51.834z&#xA;&#x9;&#x9; M147.583,68.998c1.063,0,2.044-0.148,2.939-0.447c0.896-0.299,1.671-0.742,2.323-1.33c0.653-0.588,1.162-1.307,1.526-2.155&#xA;&#x9;&#x9;c0.363-0.85,0.546-1.833,0.546-2.954c0-1.27-0.22-2.348-0.658-3.234c-0.438-0.886-0.993-1.605-1.666-2.156&#xA;&#x9;&#x9;c-0.672-0.55-1.419-0.951-2.239-1.203c-0.821-0.252-1.605-0.379-2.353-0.379h-2.744v13.859H147.583z"></path>
&#x9;<path fill="#FFFFFF" d="M161.779,72.246V51.834h13.551v3.107h-10.135v5.488h9.016v3.192h-9.016v5.432h10.526v3.191L161.779,72.246&#xA;&#x9;&#x9;L161.779,72.246z"></path>
&#x9;<path fill="#FFFFFF" d="M185.494,50.938c0.094,0.131,0.299,0.426,0.616,0.883c0.316,0.457,0.714,1.018,1.189,1.68&#xA;&#x9;&#x9;c0.477,0.663,1.008,1.396,1.596,2.197c0.589,0.803,1.187,1.621,1.792,2.451c0.606,0.83,1.199,1.643,1.778,2.436&#xA;&#x9;&#x9;c0.578,0.794,1.103,1.518,1.568,2.17c0.466,0.654,0.862,1.2,1.188,1.639c0.326,0.439,0.527,0.715,0.603,0.826&#xA;&#x9;&#x9;c0.037-0.057,0.205-0.295,0.504-0.715c0.299-0.419,0.677-0.947,1.135-1.582c0.457-0.634,0.975-1.357,1.554-2.17&#xA;&#x9;&#x9;s1.177-1.639,1.792-2.479c0.616-0.84,1.22-1.67,1.808-2.491c0.588-0.822,1.129-1.568,1.623-2.24&#xA;&#x9;&#x9;c0.493-0.672,0.909-1.241,1.246-1.708c0.336-0.466,0.551-0.766,0.645-0.896v21.309h-3.668V61.83c0-0.148,0.018-0.309,0.056-0.477&#xA;&#x9;&#x9;c0.037-0.168,0.057-0.271,0.057-0.308l-6.748,9.715c-0.095-0.11-0.322-0.42-0.687-0.924c-0.363-0.504-0.798-1.1-1.303-1.791&#xA;&#x9;&#x9;c-0.504-0.69-1.035-1.434-1.596-2.227s-1.088-1.53-1.582-2.212c-0.494-0.681-0.914-1.26-1.261-1.735&#xA;&#x9;&#x9;c-0.346-0.476-0.536-0.751-0.573-0.826c0,0.038,0.019,0.14,0.057,0.308c0.037,0.168,0.056,0.328,0.056,0.477v10.416h-3.443&#xA;&#x9;&#x9;L185.494,50.938L185.494,50.938z"></path>
&#x9;<path fill="#FFFFFF" d="M223.378,72.246c-0.057-0.131-0.154-0.363-0.295-0.699s-0.313-0.746-0.519-1.231&#xA;&#x9;&#x9;c-0.204-0.484-0.43-1.021-0.672-1.609c-0.243-0.588-0.495-1.199-0.756-1.834h-7.028l-2.238,5.375h-3.39&#xA;&#x9;&#x9;c0.074-0.168,0.252-0.582,0.532-1.246c0.28-0.662,0.63-1.484,1.05-2.463c0.42-0.98,0.888-2.072,1.4-3.277&#xA;&#x9;&#x9;c0.513-1.204,1.04-2.43,1.582-3.681c0.541-1.25,1.068-2.479,1.582-3.682c0.513-1.205,0.979-2.297,1.398-3.276&#xA;&#x9;&#x9;c0.421-0.979,0.771-1.802,1.051-2.464c0.279-0.663,0.457-1.078,0.531-1.246c0.074,0.168,0.258,0.583,0.547,1.246&#xA;&#x9;&#x9;c0.288,0.662,0.645,1.484,1.063,2.464s0.887,2.071,1.4,3.276c0.513,1.203,1.039,2.432,1.582,3.682&#xA;&#x9;&#x9;c0.541,1.251,1.067,2.478,1.581,3.681c0.514,1.205,0.979,2.297,1.399,3.277c0.42,0.979,0.771,1.801,1.05,2.463&#xA;&#x9;&#x9;c0.28,0.664,0.457,1.078,0.532,1.246L223.378,72.246L223.378,72.246z M215.287,63.986h4.646l-2.017-4.871&#xA;&#x9;&#x9;c-0.02-0.02-0.064-0.145-0.14-0.379c-0.076-0.232-0.132-0.442-0.168-0.629c-0.038,0.187-0.095,0.396-0.169,0.629&#xA;&#x9;&#x9;c-0.074,0.234-0.111,0.359-0.111,0.379L215.287,63.986z"></path>
&#x9;<path fill="#FFFFFF" d="M243.734,62.334v8.679c-0.784,0.468-1.731,0.826-2.843,1.078c-1.11,0.252-2.244,0.379-3.401,0.379&#xA;&#x9;&#x9;c-1.605,0-3.058-0.252-4.354-0.756c-1.298-0.504-2.404-1.195-3.317-2.072c-0.914-0.877-1.615-1.922-2.101-3.137&#xA;&#x9;&#x9;c-0.486-1.213-0.729-2.538-0.729-3.976c0-1.623,0.289-3.104,0.867-4.438c0.579-1.334,1.358-2.482,2.34-3.443&#xA;&#x9;&#x9;c0.979-0.961,2.116-1.709,3.416-2.24c1.297-0.532,2.663-0.799,4.102-0.799c0.484,0,0.994,0.033,1.525,0.099s1.06,0.164,1.582,0.294&#xA;&#x9;&#x9;c0.521,0.131,1.025,0.285,1.513,0.462c0.483,0.179,0.924,0.388,1.314,0.63l-1.68,2.801c-0.262-0.168-0.574-0.313-0.938-0.435&#xA;&#x9;&#x9;s-0.741-0.228-1.135-0.321c-0.393-0.094-0.778-0.164-1.162-0.211c-0.383-0.046-0.741-0.07-1.077-0.07&#xA;&#x9;&#x9;c-0.951,0-1.861,0.192-2.729,0.574c-0.868,0.383-1.638,0.901-2.31,1.555c-0.672,0.652-1.209,1.433-1.61,2.338&#xA;&#x9;&#x9;c-0.401,0.904-0.603,1.872-0.603,2.898c0,0.933,0.178,1.819,0.531,2.659c0.354,0.84,0.85,1.582,1.483,2.228&#xA;&#x9;&#x9;c0.635,0.643,1.391,1.155,2.269,1.539c0.879,0.383,1.84,0.573,2.885,0.573c0.373,0,0.84-0.032,1.399-0.098&#xA;&#x9;&#x9;c0.562-0.066,1.092-0.182,1.597-0.35v-3.474h-3.807v-2.968L243.734,62.334L243.734,62.334z"></path>
&#x9;<path fill="#FFFFFF" d="M247.57,51.834h3.443v20.412h-3.443V51.834z"></path>
&#x9;<path fill="#FFFFFF" d="M267.757,52.982l-1.23,2.8c-0.784-0.28-1.56-0.505-2.324-0.673c-0.767-0.168-1.476-0.252-2.128-0.252&#xA;&#x9;&#x9;c-1.14,0-2.04,0.225-2.702,0.672c-0.663,0.449-0.994,1.019-0.994,1.709c0,0.598,0.247,1.082,0.742,1.455&#xA;&#x9;&#x9;c0.494,0.375,1.115,0.709,1.862,1.009c0.745,0.299,1.554,0.602,2.422,0.909c0.868,0.309,1.675,0.705,2.422,1.19&#xA;&#x9;&#x9;c0.746,0.485,1.367,1.101,1.861,1.849c0.494,0.745,0.742,1.698,0.742,2.854c0,0.896-0.164,1.709-0.489,2.438&#xA;&#x9;&#x9;c-0.327,0.727-0.817,1.354-1.472,1.875c-0.652,0.522-1.479,0.93-2.478,1.219s-2.17,0.434-3.515,0.434&#xA;&#x9;&#x9;c-0.821,0-1.567-0.057-2.239-0.168c-0.672-0.11-1.274-0.252-1.807-0.42c-0.531-0.168-1.004-0.35-1.414-0.547&#xA;&#x9;&#x9;c-0.41-0.195-0.766-0.387-1.063-0.574l1.483-2.996c0.784,0.431,1.624,0.763,2.521,0.994c0.896,0.234,1.688,0.353,2.38,0.353&#xA;&#x9;&#x9;c0.336,0,0.771-0.037,1.303-0.113c0.531-0.074,1.051-0.213,1.555-0.42c0.504-0.205,0.938-0.484,1.302-0.84&#xA;&#x9;&#x9;c0.364-0.354,0.546-0.813,0.546-1.371c0-0.654-0.247-1.191-0.742-1.611c-0.494-0.419-1.115-0.792-1.861-1.12&#xA;&#x9;&#x9;c-0.746-0.326-1.555-0.648-2.422-0.966s-1.676-0.694-2.423-1.134c-0.746-0.438-1.367-0.98-1.86-1.624&#xA;&#x9;&#x9;c-0.495-0.644-0.742-1.46-0.742-2.45c0-0.709,0.14-1.404,0.42-2.086s0.704-1.292,1.273-1.834c0.568-0.541,1.278-0.98,2.128-1.316&#xA;&#x9;&#x9;s1.854-0.504,3.011-0.504c0.728,0,1.433,0.061,2.113,0.182c0.682,0.123,1.292,0.258,1.834,0.406&#xA;&#x9;&#x9;c0.541,0.15,0.989,0.295,1.345,0.435C267.47,52.885,267.683,52.964,267.757,52.982z"></path>
&#x9;<path fill="#FFFFFF" d="M283.941,51.834v3.275h-5.039v17.137h-3.445V55.109h-4.927v-3.275H283.941L283.941,51.834z"></path>
&#x9;<path fill="#FFFFFF" d="M287.469,72.246V51.834h5.77c1.119,0,2.141,0.15,3.064,0.448c0.924,0.299,1.707,0.728,2.354,1.288&#xA;&#x9;&#x9;c0.643,0.56,1.143,1.25,1.498,2.072c0.354,0.821,0.531,1.746,0.531,2.771c0,0.561-0.057,1.12-0.168,1.68&#xA;&#x9;&#x9;c-0.111,0.561-0.291,1.102-0.531,1.624c-0.244,0.522-0.563,1.003-0.953,1.442s-0.857,0.816-1.4,1.134&#xA;&#x9;&#x9;c0.412,0.653,0.814,1.293,1.205,1.918c0.393,0.625,0.789,1.256,1.189,1.891c0.4,0.636,0.816,1.287,1.246,1.959&#xA;&#x9;&#x9;c0.43,0.673,0.896,1.4,1.398,2.185h-4.115c-0.84-1.307-1.633-2.543-2.381-3.709c-0.746-1.166-1.465-2.273-2.154-3.318h-0.279&#xA;&#x9;&#x9;h-2.857v7.027H287.469L287.469,72.246z M290.885,61.999h2.744c0.709,0,1.297-0.121,1.764-0.364&#xA;&#x9;&#x9;c0.467-0.242,0.842-0.537,1.121-0.882s0.477-0.718,0.588-1.12c0.111-0.4,0.168-0.77,0.168-1.105c0-0.317-0.053-0.676-0.154-1.078&#xA;&#x9;&#x9;s-0.289-0.779-0.561-1.135c-0.27-0.354-0.639-0.652-1.105-0.896c-0.467-0.242-1.064-0.364-1.791-0.364h-2.773V61.999&#xA;&#x9;&#x9;L290.885,61.999z"></path>
&#x9;<path fill="#FFFFFF" d="M317.82,72.246c-0.057-0.131-0.154-0.363-0.295-0.699s-0.313-0.746-0.518-1.231&#xA;&#x9;&#x9;c-0.207-0.484-0.43-1.021-0.672-1.609c-0.244-0.588-0.496-1.199-0.756-1.834h-7.029l-2.24,5.375h-3.387&#xA;&#x9;&#x9;c0.074-0.168,0.252-0.582,0.531-1.246c0.279-0.662,0.631-1.484,1.051-2.463c0.42-0.98,0.887-2.072,1.4-3.277&#xA;&#x9;&#x9;c0.512-1.204,1.039-2.43,1.582-3.681c0.541-1.25,1.066-2.479,1.582-3.682c0.512-1.205,0.979-2.297,1.398-3.276&#xA;&#x9;&#x9;s0.771-1.802,1.049-2.464c0.281-0.663,0.457-1.078,0.533-1.246c0.074,0.168,0.256,0.583,0.545,1.246&#xA;&#x9;&#x9;c0.289,0.662,0.646,1.484,1.064,2.464c0.42,0.979,0.887,2.071,1.398,3.276c0.514,1.203,1.041,2.432,1.582,3.682&#xA;&#x9;&#x9;c0.541,1.251,1.068,2.478,1.582,3.681c0.514,1.205,0.98,2.297,1.4,3.277c0.42,0.979,0.77,1.801,1.051,2.463&#xA;&#x9;&#x9;c0.279,0.664,0.457,1.078,0.531,1.246L317.82,72.246L317.82,72.246z M309.729,63.986h4.648l-2.018-4.871&#xA;&#x9;&#x9;c-0.02-0.02-0.064-0.145-0.141-0.379c-0.074-0.232-0.131-0.442-0.168-0.629c-0.037,0.187-0.094,0.396-0.168,0.629&#xA;&#x9;&#x9;c-0.074,0.234-0.111,0.359-0.111,0.379L309.729,63.986z"></path>
&#x9;<path fill="#FFFFFF" d="M323.561,51.834h5.291c2.055,0,3.795,0.313,5.225,0.938c1.428,0.627,2.59,1.434,3.484,2.422&#xA;&#x9;&#x9;c0.896,0.99,1.545,2.115,1.945,3.375c0.402,1.26,0.604,2.516,0.604,3.766c0,1.531-0.275,2.908-0.826,4.13&#xA;&#x9;&#x9;c-0.551,1.223-1.293,2.264-2.227,3.121c-0.934,0.859-2.021,1.518-3.262,1.975c-1.242,0.457-2.553,0.687-3.934,0.687h-6.303V51.834&#xA;&#x9;&#x9;H323.561z M329.328,68.998c1.063,0,2.045-0.148,2.939-0.447c0.896-0.299,1.672-0.742,2.324-1.33s1.162-1.307,1.525-2.155&#xA;&#x9;&#x9;c0.365-0.85,0.547-1.833,0.547-2.954c0-1.27-0.221-2.348-0.658-3.234c-0.438-0.886-0.994-1.605-1.666-2.156&#xA;&#x9;&#x9;c-0.672-0.55-1.42-0.951-2.24-1.203s-1.605-0.379-2.352-0.379h-2.744v13.859H329.328z"></path>
&#x9;<path fill="#FFFFFF" d="M342.18,62.083c0-1.418,0.275-2.763,0.826-4.032s1.297-2.38,2.24-3.332&#xA;&#x9;&#x9;c0.941-0.951,2.045-1.708,3.305-2.268c1.26-0.561,2.607-0.84,4.045-0.84c1.42,0,2.764,0.279,4.033,0.84&#xA;&#x9;&#x9;c1.268,0.56,2.379,1.316,3.332,2.268c0.951,0.952,1.703,2.063,2.254,3.332c0.551,1.27,0.826,2.613,0.826,4.032&#xA;&#x9;&#x9;c0,1.438-0.275,2.787-0.826,4.046s-1.303,2.361-2.254,3.303c-0.953,0.943-2.064,1.687-3.332,2.228&#xA;&#x9;&#x9;c-1.27,0.543-2.613,0.813-4.033,0.813c-1.438,0-2.785-0.27-4.045-0.813c-1.26-0.541-2.361-1.283-3.305-2.228&#xA;&#x9;&#x9;c-0.943-0.94-1.689-2.043-2.24-3.303S342.18,63.52,342.18,62.083z M345.625,62.083c0,0.989,0.182,1.918,0.545,2.787&#xA;&#x9;&#x9;c0.365,0.867,0.869,1.623,1.512,2.268c0.646,0.646,1.393,1.152,2.24,1.525c0.85,0.375,1.77,0.561,2.758,0.561&#xA;&#x9;&#x9;c0.953,0,1.854-0.186,2.703-0.561c0.85-0.373,1.586-0.881,2.211-1.525s1.121-1.399,1.484-2.268&#xA;&#x9;&#x9;c0.363-0.869,0.547-1.797,0.547-2.787s-0.188-1.918-0.561-2.786c-0.373-0.867-0.879-1.628-1.514-2.281&#xA;&#x9;&#x9;c-0.635-0.654-1.377-1.168-2.225-1.541c-0.852-0.373-1.76-0.56-2.73-0.56s-1.881,0.187-2.729,0.56&#xA;&#x9;&#x9;c-0.852,0.375-1.588,0.887-2.213,1.541c-0.625,0.652-1.119,1.414-1.484,2.281C345.807,60.165,345.625,61.093,345.625,62.083z"></path>
&#x9;<path fill="#FFFFFF" d="M378.217,52.982l-1.23,2.8c-0.785-0.28-1.561-0.505-2.324-0.673c-0.768-0.168-1.477-0.252-2.129-0.252&#xA;&#x9;&#x9;c-1.139,0-2.039,0.225-2.701,0.672c-0.664,0.449-0.994,1.019-0.994,1.709c0,0.598,0.246,1.082,0.742,1.455&#xA;&#x9;&#x9;c0.494,0.375,1.115,0.709,1.861,1.009c0.746,0.299,1.555,0.602,2.422,0.909c0.867,0.309,1.676,0.705,2.422,1.19&#xA;&#x9;&#x9;s1.367,1.101,1.861,1.849c0.494,0.745,0.742,1.698,0.742,2.854c0,0.896-0.164,1.709-0.488,2.438&#xA;&#x9;&#x9;c-0.328,0.727-0.818,1.354-1.473,1.875c-0.652,0.522-1.479,0.93-2.477,1.219c-1,0.289-2.17,0.434-3.516,0.434&#xA;&#x9;&#x9;c-0.82,0-1.566-0.057-2.238-0.168c-0.672-0.11-1.275-0.252-1.807-0.42s-1.004-0.35-1.414-0.547&#xA;&#x9;&#x9;c-0.412-0.195-0.766-0.387-1.064-0.574l1.484-2.996c0.783,0.431,1.623,0.763,2.52,0.994c0.896,0.234,1.689,0.353,2.381,0.353&#xA;&#x9;&#x9;c0.336,0,0.771-0.037,1.303-0.113c0.531-0.074,1.049-0.213,1.555-0.42c0.504-0.205,0.938-0.484,1.301-0.84&#xA;&#x9;&#x9;c0.365-0.354,0.547-0.813,0.547-1.371c0-0.654-0.248-1.191-0.742-1.611c-0.494-0.419-1.115-0.792-1.861-1.12&#xA;&#x9;&#x9;c-0.746-0.326-1.555-0.648-2.422-0.966s-1.676-0.694-2.424-1.134c-0.746-0.438-1.367-0.98-1.859-1.624&#xA;&#x9;&#x9;c-0.496-0.644-0.742-1.46-0.742-2.45c0-0.709,0.139-1.404,0.42-2.086c0.279-0.682,0.703-1.292,1.273-1.834&#xA;&#x9;&#x9;c0.568-0.541,1.277-0.98,2.127-1.316s1.854-0.504,3.012-0.504c0.727,0,1.432,0.061,2.113,0.182&#xA;&#x9;&#x9;c0.682,0.123,1.291,0.258,1.834,0.406c0.541,0.15,0.988,0.295,1.344,0.435S378.143,52.964,378.217,52.982z"></path>
&#x9;<path fill="#FFFFFF" d="M384.656,76.475v-3.248c0.635-0.036,1.223-0.157,1.764-0.362c0.541-0.207,1.008-0.511,1.4-0.91&#xA;&#x9;&#x9;c0.393-0.402,0.693-0.914,0.908-1.541c0.217-0.625,0.322-1.367,0.322-2.225V51.835h3.473v16.438c0,1.286-0.199,2.432-0.602,3.43&#xA;&#x9;&#x9;s-0.953,1.848-1.652,2.547c-0.699,0.701-1.529,1.236-2.492,1.611C386.816,76.232,385.775,76.438,384.656,76.475z"></path>
&#x9;<path fill="#FFFFFF" d="M404.844,72.471c-1.102,0-2.133-0.182-3.094-0.547c-0.961-0.363-1.797-0.871-2.506-1.524&#xA;&#x9;&#x9;c-0.709-0.652-1.27-1.441-1.68-2.365s-0.615-1.947-0.615-3.066V51.836h3.416v13.048c0,0.599,0.115,1.158,0.35,1.681&#xA;&#x9;&#x9;c0.232,0.522,0.551,0.979,0.951,1.373c0.402,0.391,0.873,0.702,1.414,0.938c0.541,0.232,1.129,0.35,1.764,0.35&#xA;&#x9;&#x9;s1.229-0.116,1.779-0.35c0.551-0.234,1.031-0.547,1.441-0.938c0.41-0.394,0.73-0.851,0.967-1.373c0.23-0.521,0.35-1.082,0.35-1.681&#xA;&#x9;&#x9;V51.836h3.416v13.132c0,1.119-0.205,2.144-0.617,3.066c-0.41,0.924-0.975,1.713-1.691,2.365c-0.721,0.653-1.564,1.161-2.535,1.524&#xA;&#x9;&#x9;C406.982,72.289,405.945,72.471,404.844,72.471z"></path>
&#x9;<path fill="#FFFFFF" d="M417.303,51.834h5.293c2.055,0,3.795,0.313,5.223,0.938c1.428,0.627,2.59,1.434,3.484,2.422&#xA;&#x9;&#x9;c0.896,0.99,1.545,2.115,1.947,3.375c0.4,1.26,0.602,2.516,0.602,3.766c0,1.531-0.275,2.908-0.824,4.13&#xA;&#x9;&#x9;c-0.553,1.223-1.293,2.264-2.229,3.121c-0.934,0.859-2.02,1.518-3.262,1.975c-1.24,0.457-2.553,0.687-3.934,0.687h-6.301V51.834&#xA;&#x9;&#x9;L417.303,51.834z M423.072,68.998c1.063,0,2.043-0.148,2.938-0.447c0.896-0.299,1.672-0.742,2.324-1.33&#xA;&#x9;&#x9;c0.654-0.588,1.162-1.307,1.527-2.155c0.363-0.85,0.545-1.833,0.545-2.954c0-1.27-0.221-2.348-0.658-3.234&#xA;&#x9;&#x9;c-0.438-0.886-0.994-1.605-1.666-2.156c-0.672-0.55-1.418-0.951-2.24-1.203c-0.82-0.252-1.604-0.379-2.352-0.379h-2.744v13.859&#xA;&#x9;&#x9;H423.072z"></path>
&#x9;<path fill="#FFFFFF" d="M437.268,51.834h3.443v20.412h-3.443V51.834z"></path>
&#x9;<path fill="#FFFFFF" d="M460.787,70.734c-0.225,0.149-0.535,0.325-0.938,0.53c-0.4,0.207-0.879,0.398-1.428,0.574&#xA;&#x9;&#x9;c-0.551,0.178-1.172,0.328-1.863,0.449c-0.689,0.121-1.428,0.182-2.211,0.182c-1.605,0-3.043-0.274-4.313-0.825&#xA;&#x9;&#x9;c-1.271-0.552-2.344-1.294-3.221-2.228c-0.877-0.932-1.551-2.025-2.016-3.275c-0.467-1.25-0.701-2.565-0.701-3.948&#xA;&#x9;&#x9;c0-1.53,0.281-2.944,0.842-4.241c0.559-1.297,1.318-2.417,2.281-3.36c0.961-0.941,2.08-1.675,3.359-2.197&#xA;&#x9;&#x9;c1.277-0.522,2.645-0.785,4.102-0.785c0.561,0,1.125,0.043,1.695,0.127c0.568,0.084,1.105,0.191,1.609,0.322&#xA;&#x9;&#x9;s0.945,0.279,1.33,0.447c0.383,0.168,0.656,0.346,0.824,0.532c-0.168,0.263-0.299,0.476-0.391,0.644&#xA;&#x9;&#x9;c-0.094,0.168-0.193,0.342-0.295,0.519c-0.104,0.178-0.215,0.378-0.336,0.603c-0.121,0.223-0.295,0.531-0.52,0.924&#xA;&#x9;&#x9;c-0.223-0.149-0.494-0.28-0.813-0.393c-0.316-0.111-0.648-0.199-0.992-0.266c-0.346-0.065-0.697-0.116-1.051-0.154&#xA;&#x9;&#x9;c-0.355-0.037-0.672-0.057-0.951-0.057c-1.047,0-2.012,0.197-2.898,0.589s-1.652,0.909-2.297,1.554s-1.146,1.396-1.512,2.254&#xA;&#x9;&#x9;c-0.363,0.859-0.545,1.746-0.545,2.66c0,0.896,0.172,1.77,0.518,2.619s0.83,1.6,1.455,2.254c0.625,0.652,1.367,1.18,2.227,1.582&#xA;&#x9;&#x9;c0.857,0.4,1.811,0.602,2.855,0.602c0.598,0,1.178-0.061,1.736-0.182c0.561-0.121,1.055-0.258,1.484-0.406&#xA;&#x9;&#x9;c0.43-0.149,0.777-0.299,1.049-0.446c0.271-0.15,0.416-0.255,0.436-0.31L460.787,70.734z"></path>
&#x9;<path fill="#FFFFFF" d="M463.336,51.834h3.443v20.412h-3.443V51.834z"></path>
&#x9;<path fill="#FFFFFF" d="M484.027,72.246c-0.057-0.131-0.154-0.363-0.295-0.699s-0.313-0.746-0.518-1.231&#xA;&#x9;&#x9;c-0.207-0.484-0.43-1.021-0.672-1.609c-0.244-0.588-0.496-1.199-0.756-1.834h-7.029l-2.24,5.375h-3.387&#xA;&#x9;&#x9;c0.074-0.168,0.252-0.582,0.531-1.246c0.279-0.662,0.631-1.484,1.051-2.463c0.42-0.98,0.887-2.072,1.4-3.277&#xA;&#x9;&#x9;c0.512-1.204,1.039-2.43,1.582-3.681c0.541-1.25,1.066-2.479,1.582-3.682c0.512-1.205,0.979-2.297,1.398-3.276&#xA;&#x9;&#x9;s0.771-1.802,1.049-2.464c0.281-0.663,0.457-1.078,0.533-1.246c0.074,0.168,0.256,0.583,0.545,1.246&#xA;&#x9;&#x9;c0.289,0.662,0.646,1.484,1.064,2.464c0.42,0.979,0.887,2.071,1.398,3.276c0.514,1.203,1.041,2.432,1.582,3.682&#xA;&#x9;&#x9;c0.541,1.251,1.068,2.478,1.582,3.681c0.514,1.205,0.98,2.297,1.4,3.277c0.42,0.979,0.77,1.801,1.051,2.463&#xA;&#x9;&#x9;c0.279,0.664,0.457,1.078,0.531,1.246L484.027,72.246L484.027,72.246z M475.936,63.986h4.648l-2.018-4.871&#xA;&#x9;&#x9;c-0.02-0.02-0.064-0.145-0.141-0.379c-0.074-0.232-0.131-0.442-0.168-0.629c-0.037,0.187-0.094,0.396-0.168,0.629&#xA;&#x9;&#x9;c-0.074,0.234-0.111,0.359-0.111,0.379L475.936,63.986z"></path>
&#x9;<path fill="#FFFFFF" d="M489.768,72.246V51.834h3.416v17.164h9.912v3.248H489.768z"></path>
&#x9;<path fill="#FFFFFF" d="M505.867,72.246V51.834h13.553v3.107h-10.137v5.488h9.016v3.192h-9.016v5.432h10.527v3.191L505.867,72.246&#xA;&#x9;&#x9;L505.867,72.246z"></path>
&#x9;<path fill="#FFFFFF" d="M535.238,52.982l-1.232,2.8c-0.783-0.28-1.559-0.505-2.324-0.673s-1.475-0.252-2.127-0.252&#xA;&#x9;&#x9;c-1.139,0-2.041,0.225-2.703,0.672c-0.662,0.449-0.992,1.019-0.992,1.709c0,0.598,0.246,1.082,0.74,1.455&#xA;&#x9;&#x9;c0.494,0.375,1.115,0.709,1.863,1.009c0.746,0.299,1.553,0.602,2.422,0.909c0.867,0.309,1.674,0.705,2.422,1.19&#xA;&#x9;&#x9;c0.746,0.485,1.367,1.101,1.861,1.849c0.494,0.745,0.742,1.698,0.742,2.854c0,0.896-0.164,1.709-0.49,2.438&#xA;&#x9;&#x9;c-0.326,0.727-0.816,1.354-1.471,1.875c-0.652,0.522-1.479,0.93-2.479,1.219c-0.998,0.289-2.17,0.434-3.514,0.434&#xA;&#x9;&#x9;c-0.822,0-1.568-0.057-2.24-0.168c-0.672-0.11-1.273-0.252-1.805-0.42c-0.533-0.168-1.004-0.35-1.414-0.547&#xA;&#x9;&#x9;c-0.412-0.195-0.768-0.387-1.064-0.574l1.484-2.996c0.783,0.431,1.623,0.763,2.52,0.994c0.896,0.234,1.689,0.353,2.381,0.353&#xA;&#x9;&#x9;c0.336,0,0.77-0.037,1.303-0.113c0.531-0.074,1.049-0.213,1.553-0.42c0.504-0.205,0.939-0.484,1.303-0.84&#xA;&#x9;&#x9;c0.363-0.354,0.545-0.813,0.545-1.371c0-0.654-0.246-1.191-0.74-1.611c-0.494-0.419-1.115-0.792-1.861-1.12&#xA;&#x9;&#x9;c-0.748-0.326-1.555-0.648-2.422-0.966c-0.869-0.317-1.676-0.694-2.424-1.134c-0.746-0.438-1.367-0.98-1.861-1.624&#xA;&#x9;&#x9;s-0.742-1.46-0.742-2.45c0-0.709,0.141-1.404,0.42-2.086c0.281-0.682,0.705-1.292,1.275-1.834c0.566-0.541,1.277-0.98,2.127-1.316&#xA;&#x9;&#x9;s1.854-0.504,3.01-0.504c0.729,0,1.434,0.061,2.115,0.182c0.68,0.123,1.291,0.258,1.834,0.406c0.541,0.15,0.988,0.295,1.344,0.435&#xA;&#x9;&#x9;S535.164,52.964,535.238,52.982z"></path>
&#x9;<path fill="#FFFFFF" d="M141.814,85.434h5.293c2.054,0,3.793,0.313,5.223,0.939c1.428,0.625,2.59,1.432,3.484,2.422&#xA;&#x9;&#x9;c0.896,0.988,1.546,2.113,1.946,3.373c0.401,1.26,0.604,2.516,0.604,3.766c0,1.531-0.275,2.908-0.826,4.132&#xA;&#x9;&#x9;c-0.551,1.223-1.293,2.264-2.228,3.12c-0.934,0.859-2.021,1.519-3.262,1.976c-1.242,0.457-2.553,0.686-3.934,0.686h-6.302&#xA;&#x9;&#x9;L141.814,85.434L141.814,85.434z M147.583,102.598c1.063,0,2.044-0.147,2.939-0.446c0.896-0.3,1.671-0.742,2.323-1.33&#xA;&#x9;&#x9;c0.653-0.588,1.162-1.308,1.526-2.156c0.363-0.85,0.546-1.834,0.546-2.953c0-1.27-0.22-2.348-0.658-3.234&#xA;&#x9;&#x9;c-0.438-0.886-0.993-1.604-1.666-2.155c-0.672-0.551-1.419-0.951-2.239-1.205c-0.821-0.252-1.605-0.377-2.353-0.377h-2.744v13.858&#xA;&#x9;&#x9;L147.583,102.598L147.583,102.598z"></path>
&#x9;<path fill="#FFFFFF" d="M161.779,105.846V85.434h13.551v3.109h-10.135v5.486h9.016v3.192h-9.016v5.433h10.526v3.19L161.779,105.846&#xA;&#x9;&#x9;L161.779,105.846z"></path>
&#x9;<path fill="#FFFFFF" d="M179.11,105.846V85.434h3.415v17.164h9.912v3.248H179.11z"></path>
&#x9;<path fill="#FFFFFF" d="M200.698,105.846V85.434h5.769c1.119,0,2.143,0.15,3.065,0.449s1.708,0.728,2.353,1.287&#xA;&#x9;&#x9;c0.645,0.562,1.144,1.252,1.498,2.072c0.354,0.822,0.531,1.746,0.531,2.771c0,0.822-0.121,1.64-0.363,2.451&#xA;&#x9;&#x9;c-0.243,0.812-0.641,1.539-1.189,2.185c-0.552,0.645-1.266,1.166-2.143,1.567c-0.879,0.4-1.961,0.603-3.248,0.603h-2.855v7.026&#xA;&#x9;&#x9;L200.698,105.846L200.698,105.846z M204.114,95.598h2.743c0.709,0,1.298-0.121,1.765-0.362c0.466-0.242,0.841-0.548,1.12-0.91&#xA;&#x9;&#x9;c0.278-0.363,0.477-0.746,0.588-1.148c0.111-0.399,0.168-0.76,0.168-1.078c0-0.297-0.051-0.647-0.154-1.049&#xA;&#x9;&#x9;c-0.103-0.401-0.289-0.779-0.56-1.135c-0.271-0.354-0.641-0.652-1.106-0.896c-0.467-0.241-1.063-0.362-1.791-0.362h-2.771&#xA;&#x9;&#x9;L204.114,95.598L204.114,95.598z"></path>
&#x9;<path fill="#FFFFFF" d="M227.83,105.846c-0.058-0.131-0.154-0.362-0.294-0.698c-0.141-0.337-0.313-0.746-0.52-1.232&#xA;&#x9;&#x9;c-0.205-0.484-0.43-1.021-0.672-1.609s-0.494-1.198-0.756-1.834h-7.026l-2.239,5.375h-3.39c0.074-0.168,0.252-0.582,0.533-1.246&#xA;&#x9;&#x9;c0.279-0.661,0.629-1.483,1.049-2.463s0.888-2.071,1.4-3.276c0.514-1.203,1.041-2.431,1.582-3.683&#xA;&#x9;&#x9;c0.541-1.25,1.067-2.479,1.582-3.682c0.514-1.203,0.979-2.297,1.399-3.275c0.421-0.979,0.771-1.801,1.051-2.465&#xA;&#x9;&#x9;c0.279-0.662,0.457-1.078,0.531-1.246c0.074,0.168,0.257,0.584,0.545,1.246c0.29,0.664,0.646,1.484,1.064,2.465&#xA;&#x9;&#x9;c0.42,0.979,0.887,2.072,1.4,3.275c0.513,1.203,1.04,2.432,1.582,3.682c0.541,1.252,1.067,2.479,1.582,3.683&#xA;&#x9;&#x9;c0.514,1.205,0.979,2.297,1.399,3.276s0.771,1.802,1.049,2.463c0.281,0.664,0.457,1.078,0.533,1.246L227.83,105.846L227.83,105.846&#xA;&#x9;&#x9;z M219.738,97.586h4.647l-2.017-4.871c-0.02-0.02-0.065-0.145-0.141-0.379c-0.074-0.232-0.131-0.443-0.168-0.629&#xA;&#x9;&#x9;c-0.038,0.186-0.094,0.396-0.168,0.629c-0.074,0.234-0.111,0.359-0.111,0.379L219.738,97.586z"></path>
&#x9;<path fill="#FFFFFF" d="M233.57,105.846V85.434h5.768c1.121,0,2.143,0.15,3.066,0.449c0.923,0.299,1.708,0.728,2.352,1.287&#xA;&#x9;&#x9;c0.645,0.562,1.145,1.252,1.498,2.072c0.354,0.822,0.532,1.746,0.532,2.771c0,0.562-0.057,1.121-0.168,1.681&#xA;&#x9;&#x9;c-0.112,0.561-0.289,1.102-0.532,1.625c-0.242,0.522-0.561,1.004-0.952,1.44c-0.392,0.439-0.858,0.816-1.398,1.135&#xA;&#x9;&#x9;c0.409,0.652,0.812,1.294,1.203,1.919c0.393,0.625,0.788,1.256,1.189,1.891s0.816,1.287,1.246,1.959s0.896,1.4,1.399,2.184h-4.115&#xA;&#x9;&#x9;c-0.84-1.307-1.635-2.543-2.38-3.709c-0.747-1.166-1.467-2.272-2.156-3.317h-0.28h-2.854v7.026H233.57z M236.986,95.598h2.743&#xA;&#x9;&#x9;c0.709,0,1.298-0.121,1.765-0.362c0.467-0.242,0.84-0.537,1.12-0.884c0.279-0.344,0.476-0.717,0.588-1.118&#xA;&#x9;&#x9;c0.111-0.402,0.168-0.771,0.168-1.105c0-0.318-0.052-0.678-0.154-1.078c-0.103-0.401-0.289-0.778-0.56-1.135&#xA;&#x9;&#x9;c-0.271-0.354-0.641-0.652-1.106-0.896c-0.467-0.241-1.063-0.362-1.792-0.362h-2.771L236.986,95.598L236.986,95.598z"></path>
&#x9;<path fill="#FFFFFF" d="M263.921,105.846c-0.057-0.131-0.154-0.362-0.295-0.698c-0.14-0.337-0.313-0.746-0.518-1.232&#xA;&#x9;&#x9;c-0.206-0.484-0.431-1.021-0.673-1.609s-0.495-1.198-0.756-1.834h-7.027l-2.24,5.375h-3.388c0.073-0.168,0.252-0.582,0.531-1.246&#xA;&#x9;&#x9;c0.279-0.661,0.63-1.483,1.05-2.463c0.421-0.979,0.888-2.071,1.4-3.276c0.513-1.203,1.04-2.431,1.582-3.683&#xA;&#x9;&#x9;c0.541-1.25,1.068-2.479,1.582-3.682c0.513-1.203,0.979-2.297,1.399-3.275c0.42-0.979,0.771-1.801,1.05-2.465&#xA;&#x9;&#x9;c0.279-0.662,0.457-1.078,0.532-1.246c0.073,0.168,0.257,0.584,0.546,1.246c0.289,0.664,0.645,1.484,1.063,2.465&#xA;&#x9;&#x9;c0.42,0.979,0.886,2.072,1.399,3.275c0.513,1.203,1.041,2.432,1.582,3.682c0.541,1.252,1.067,2.479,1.582,3.683&#xA;&#x9;&#x9;c0.514,1.205,0.979,2.297,1.399,3.276s0.771,1.802,1.05,2.463c0.28,0.664,0.457,1.078,0.532,1.246L263.921,105.846L263.921,105.846&#xA;&#x9;&#x9;z M255.829,97.586h4.647l-2.017-4.871c-0.02-0.02-0.065-0.145-0.14-0.379c-0.075-0.232-0.132-0.443-0.168-0.629&#xA;&#x9;&#x9;c-0.037,0.186-0.095,0.396-0.168,0.629c-0.075,0.234-0.112,0.359-0.112,0.379L255.829,97.586z"></path>
&#x9;<path fill="#FFFFFF" d="M284.277,95.934v8.681c-0.783,0.467-1.73,0.826-2.842,1.078s-2.244,0.379-3.402,0.379&#xA;&#x9;&#x9;c-1.605,0-3.057-0.252-4.354-0.756c-1.297-0.505-2.402-1.195-3.317-2.072c-0.914-0.877-1.615-1.922-2.101-3.137&#xA;&#x9;&#x9;c-0.484-1.214-0.728-2.537-0.728-3.976c0-1.625,0.289-3.104,0.868-4.438c0.578-1.334,1.357-2.482,2.337-3.443&#xA;&#x9;&#x9;c0.979-0.961,2.118-1.707,3.417-2.24c1.297-0.531,2.664-0.797,4.102-0.797c0.484,0,0.994,0.031,1.525,0.098&#xA;&#x9;&#x9;c0.533,0.064,1.059,0.164,1.582,0.293c0.521,0.132,1.025,0.285,1.512,0.464c0.486,0.178,0.924,0.387,1.316,0.629l-1.682,2.801&#xA;&#x9;&#x9;c-0.262-0.168-0.572-0.313-0.938-0.434c-0.365-0.121-0.742-0.229-1.133-0.322c-0.395-0.094-0.781-0.164-1.162-0.211&#xA;&#x9;&#x9;c-0.385-0.045-0.742-0.068-1.078-0.068c-0.953,0-1.863,0.191-2.73,0.572c-0.867,0.383-1.639,0.901-2.311,1.555&#xA;&#x9;&#x9;c-0.672,0.654-1.209,1.435-1.609,2.338c-0.4,0.906-0.602,1.871-0.602,2.898c0,0.934,0.176,1.82,0.531,2.66&#xA;&#x9;&#x9;c0.354,0.84,0.85,1.582,1.482,2.227c0.635,0.644,1.391,1.156,2.27,1.539c0.877,0.383,1.838,0.574,2.885,0.574&#xA;&#x9;&#x9;c0.373,0,0.84-0.033,1.398-0.099c0.561-0.065,1.094-0.182,1.598-0.35v-3.473h-3.811v-2.97H284.277L284.277,95.934z"></path>
&#x9;<path fill="#FFFFFF" d="M295.813,106.07c-1.102,0-2.133-0.183-3.094-0.547c-0.961-0.363-1.797-0.871-2.506-1.525&#xA;&#x9;&#x9;c-0.709-0.652-1.27-1.441-1.68-2.365s-0.615-1.947-0.615-3.065V85.434h3.416v13.05c0,0.598,0.115,1.157,0.35,1.68&#xA;&#x9;&#x9;c0.232,0.522,0.551,0.979,0.951,1.373c0.402,0.391,0.873,0.703,1.414,0.938c0.541,0.232,1.129,0.351,1.764,0.351&#xA;&#x9;&#x9;c0.637,0,1.229-0.117,1.779-0.351s1.031-0.547,1.441-0.938c0.41-0.394,0.73-0.851,0.967-1.373c0.232-0.521,0.35-1.082,0.35-1.68&#xA;&#x9;&#x9;v-13.05h3.416v13.134c0,1.118-0.205,2.143-0.615,3.065c-0.41,0.924-0.977,1.713-1.693,2.365c-0.719,0.654-1.564,1.162-2.535,1.525&#xA;&#x9;&#x9;C297.951,105.889,296.914,106.07,295.813,106.07z"></path>
&#x9;<path fill="#FFFFFF" d="M320.23,105.846c-0.057-0.131-0.154-0.362-0.295-0.698c-0.141-0.337-0.313-0.746-0.518-1.232&#xA;&#x9;&#x9;c-0.207-0.484-0.43-1.021-0.672-1.609c-0.244-0.588-0.496-1.198-0.756-1.834h-7.029l-2.24,5.375h-3.387&#xA;&#x9;&#x9;c0.074-0.168,0.252-0.582,0.531-1.246c0.279-0.661,0.631-1.483,1.051-2.463s0.887-2.071,1.4-3.276&#xA;&#x9;&#x9;c0.512-1.203,1.039-2.431,1.58-3.683c0.541-1.25,1.068-2.479,1.582-3.682s0.98-2.297,1.4-3.275c0.42-0.979,0.77-1.801,1.049-2.465&#xA;&#x9;&#x9;c0.281-0.662,0.457-1.078,0.533-1.246c0.074,0.168,0.256,0.584,0.545,1.246c0.289,0.664,0.646,1.484,1.064,2.465&#xA;&#x9;&#x9;c0.42,0.979,0.887,2.072,1.398,3.275c0.514,1.203,1.041,2.432,1.582,3.682c0.541,1.252,1.068,2.479,1.582,3.683&#xA;&#x9;&#x9;c0.514,1.205,0.98,2.297,1.4,3.276s0.77,1.802,1.051,2.463c0.279,0.664,0.457,1.078,0.531,1.246L320.23,105.846L320.23,105.846z&#xA;&#x9;&#x9; M312.137,97.586h4.648l-2.018-4.871c-0.018-0.02-0.064-0.145-0.139-0.379c-0.076-0.232-0.131-0.443-0.168-0.629&#xA;&#x9;&#x9;c-0.037,0.186-0.094,0.396-0.168,0.629c-0.076,0.234-0.113,0.359-0.113,0.379L312.137,97.586z"></path>
&#x9;<path fill="#FFFFFF" d="M332.605,99.238v6.606h-3.443v-6.606c-0.094-0.131-0.326-0.547-0.699-1.246&#xA;&#x9;&#x9;c-0.375-0.699-0.832-1.539-1.373-2.521c-0.541-0.979-1.111-2.024-1.707-3.137c-0.598-1.109-1.168-2.156-1.709-3.137&#xA;&#x9;&#x9;c-0.541-0.979-0.998-1.818-1.371-2.521c-0.375-0.698-0.607-1.114-0.701-1.246h3.893c0.076,0.132,0.221,0.396,0.436,0.8&#xA;&#x9;&#x9;c0.213,0.401,0.471,0.887,0.77,1.454c0.299,0.57,0.627,1.195,0.98,1.878c0.354,0.682,0.709,1.362,1.063,2.043&#xA;&#x9;&#x9;c0.354,0.682,0.689,1.336,1.01,1.961c0.316,0.625,0.596,1.172,0.84,1.639l0.309,0.951c0.072-0.148,0.139-0.313,0.195-0.49&#xA;&#x9;&#x9;c0.057-0.178,0.111-0.33,0.168-0.461c0.242-0.467,0.521-1.014,0.84-1.639s0.648-1.279,0.994-1.961&#xA;&#x9;&#x9;c0.346-0.681,0.689-1.361,1.035-2.043c0.346-0.683,0.662-1.308,0.953-1.878c0.289-0.567,0.535-1.053,0.74-1.454&#xA;&#x9;&#x9;c0.207-0.402,0.346-0.668,0.42-0.8h3.893L332.605,99.238z"></path>
</g>
<circle fill="#E5C442" cx="64.462" cy="64" r="64"></circle>
<path fill="#FFFFFF" d="M64.462,5.299C32.042,5.299,5.761,31.58,5.761,64s26.281,58.701,58.701,58.701&#xA;&#x9;c32.419,0,58.702-26.281,58.702-58.701S96.881,5.299,64.462,5.299z M64.462,109.238c-24.983,0-45.238-20.254-45.238-45.238&#xA;&#x9;s20.252-45.238,45.238-45.238c24.984,0,45.238,20.254,45.238,45.238C109.701,88.985,89.446,109.238,64.462,109.238z"></path>
<g>
&#x9;<g>
&#x9;&#x9;<path fill="#111111" d="M86.973,62.229l-5.154-18.041l0,0l-0.004-0.008l-0.1-0.349l-0.015,0.002l-0.889-2.667l0.731-3.473&#xA;&#x9;&#x9;&#x9;c0.115-0.062,0.223-0.125,0.324-0.191c0.854-0.29,1.469-1.089,1.469-2.025c0-1.178-0.979-2.141-2.176-2.141&#xA;&#x9;&#x9;&#x9;s-2.175,0.963-2.175,2.141c0,0.076,0.006,0.149,0.014,0.224c-4.784,1.045-5.648-2.606-6.968-2.54&#xA;&#x9;&#x9;&#x9;c-0.968-0.03-0.38,0.464-1.084,0.452c-1.014,0.165-4.647,0.2-5.181,0.17v-0.001c-0.009,0-0.018,0-0.026,0&#xA;&#x9;&#x9;&#x9;c-0.007,0-0.018,0-0.025,0v0.001c-0.533,0.03-5.081,0.062-6.094-0.104c-0.703,0.01-0.694-0.566-1.659-0.537&#xA;&#x9;&#x9;&#x9;c-1.319-0.068-2.185,3.586-6.966,2.541c0.007-0.074,0.01-0.147,0.01-0.224c0-1.179-0.977-2.142-2.174-2.142&#xA;&#x9;&#x9;&#x9;s-2.174,0.964-2.174,2.142c0,0.937,0.615,1.733,1.469,2.024c0.1,0.066,0.21,0.132,0.322,0.191l0.732,3.473l-0.887,2.668&#xA;&#x9;&#x9;&#x9;l-0.016-0.002l-0.101,0.349l-0.002,0.008l-5.155,18.042h-0.117v1.727c1.459,5.793,11.441,6.121,13.502-0.191l0.076-1.534h-0.23&#xA;&#x9;&#x9;&#x9;l-5.159-18.059h0.024l-0.68-3.005l0.766-2.709c0.727,0.076,1.388,0.056,1.791-0.063c4.367-0.438,6.994-3.119,12.2-0.985&#xA;&#x9;&#x9;&#x9;l-2.04,3.865l0.058,27.311c-1.583-0.497-6.356-0.527-7.806-0.489c-0.474,1.563-0.363,2.833,0.009,3.967&#xA;&#x9;&#x9;&#x9;c1.354-0.029,6.059,0.048,7.272-0.406c-0.063,0.502-0.074,0.901,0.146,1.063c-0.783,0.563-0.847,2.787-0.119,2.619&#xA;&#x9;&#x9;&#x9;c-0.944,0.484-0.76,3.304,0.151,3.005c-0.571,0.793-0.551,2.291,0.25,2.284l-0.014,0.009c-0.316,0.16-0.39,0.497-0.313,0.841&#xA;&#x9;&#x9;&#x9;c-0.186,0.359-0.288,0.766-0.288,1.194c0.003,1.477,1.239,2.678,2.755,2.676c1.515-0.006,2.746-1.211,2.743-2.688&#xA;&#x9;&#x9;&#x9;c-0.002-0.55-0.174-1.063-0.469-1.482c-0.053-0.399-0.063-0.876,0.09-0.982c0.77-0.296,1.313-2.427,0.426-2.725&#xA;&#x9;&#x9;&#x9;c0.371-0.694,0.849-2.854-0.066-2.991c0.602-0.652,0.664-2.684-0.339-2.736l-0.009-0.079c1.418,0.352,5.651,0.526,7.195,0.48&#xA;&#x9;&#x9;&#x9;c0.495-1.019,0.694-2.539,0.042-4.13c-1.504-0.024-5.745,0.189-7.112,0.588L67.699,41.25l-2.019-3.686&#xA;&#x9;&#x9;&#x9;c5.201-2.478,6.747,0.209,11.143,0.979c0.401,0.12,1.234-0.007,1.964-0.083l0.763,2.709l-0.679,3.005h0.024l-5.161,18.059h-0.229&#xA;&#x9;&#x9;&#x9;l0.076,1.533c2.059,6.315,12.04,5.985,13.501,0.191V62.23L86.973,62.229L86.973,62.229z M49.17,62.212h-5.143l5.143-18V62.212z&#xA;&#x9;&#x9;&#x9; M55.252,62.212h-5.107V44.335L55.252,62.212z M62.856,75.266c-0.006,0-0.01,0.002-0.017,0.004&#xA;&#x9;&#x9;&#x9;c0.015-0.008,0.028-0.017,0.04-0.024l0.025-0.02L62.856,75.266z M63.8,68.711l-0.06-27.182l1.316-2.465l0.063,29.641L63.8,68.711z&#xA;&#x9;&#x9;&#x9; M79.852,62.229h-5.107l5.107-17.875V62.229z M80.826,62.229v-18l5.146,18H80.826z"></path>
&#x9;&#x9;<path id="_76644104_1_" fill="#134C0F" stroke="#0B4906" stroke-width="0.0762" d="M49.934,98.134&#xA;&#x9;&#x9;&#x9;c0.369-0.549,0.516-0.606,1.182-1.212c-1.848,1.144-4.495,0.864-6.528,0.393c0.707-0.402,0.34-0.472,1.19-0.847&#xA;&#x9;&#x9;&#x9;c-0.918,0.536-2.547,0.441-4.39-0.755c0.364-0.348,0.326-0.462,1.214-0.571c-1.459,0.604-2.789-0.539-4.627-1.762&#xA;&#x9;&#x9;&#x9;c0.777-0.249,0.913-0.334,1.527-0.229c-1.825-0.489-3.307-1.247-5.04-2.573c0.733-0.132,1.13-0.454,1.733-0.216&#xA;&#x9;&#x9;&#x9;c-1.254-0.394-2.584-1.083-3.697-2.485c0.499-0.186,1.199-0.286,1.754-0.115c-1.775-0.816-3.48-2.49-4.324-4.232&#xA;&#x9;&#x9;&#x9;c0.768-0.021,1.268,0.199,1.818,0.374c-1.57-1.19-2.93-2.833-3.771-5.081c0.696,0.22,1.5,0.398,2.112,0.757&#xA;&#x9;&#x9;&#x9;c-1.302-1.14-2.383-3.159-3.12-5.804c0.889,0.419,1.555,0.747,1.953,1.225c-1.243-2.011-2.253-4.249-2.14-7.115&#xA;&#x9;&#x9;&#x9;c0.683,0.481,1.33,0.877,1.776,1.73c-0.997-2.573-1.042-4.82-0.786-7.301c0.564,0.799,1.102,1.045,1.409,1.937&#xA;&#x9;&#x9;&#x9;c-0.206-3,0.181-4.376,1.259-5.886c0.123-0.055,0.819,2.342,0.774,3.73c0.955-1.83,2.297-4.576,3.915-4.464&#xA;&#x9;&#x9;&#x9;c0.262,1.759-0.65,4.677-1.958,6.019c0.646-0.414,1.481-0.967,2.164-0.914c-0.748,2.048-2.161,3.245-2.997,4.079&#xA;&#x9;&#x9;&#x9;c0.656-0.63,1.381-1.219,1.878-1.083c-0.229,1.964-1.083,3.675-2.032,4.73c0.486-0.544,1.12-1.307,1.659-1.4&#xA;&#x9;&#x9;&#x9;c-0.108,1.806-0.717,3.58-1.435,4.815c0.557-0.855,1.045-1.599,1.445-1.71c0.201,1.567,0.082,3.166-0.371,4.329&#xA;&#x9;&#x9;&#x9;c0.248-0.501,0.614-0.95,0.868-1.179c0.478,1.756,0.3,2.252,0.195,3.438c0.125-0.422,0.265-0.611,0.612-0.581&#xA;&#x9;&#x9;&#x9;c0.822,1.846,1.089,4.304,1.084,5.956c0.08-0.258,0.117-1.61,0.684-2.359c0.912,1.237,1.363,3.401,1.184,4.26&#xA;&#x9;&#x9;&#x9;c-0.041-0.879-0.047-1.791,0.4-2.104c0.555,0.868,0.996,2.102,1.207,3.011c-0.066-0.469,0.111-0.828,0.178-1.093&#xA;&#x9;&#x9;&#x9;c0.742,0.944,1.332,2.226,1.791,3.188c-0.13-0.615-0.261-1.209-0.113-1.494c1.494,1.383,2.787,3.337,3.484,4.375&#xA;&#x9;&#x9;&#x9;c-0.287-0.756-0.806-1.998-0.796-2.624c0.871,0.686,2.461,2.157,3.688,3.417c-0.547-0.775-1.023-1.718-1.146-2.218&#xA;&#x9;&#x9;&#x9;c1.163,0.48,2.768,1.564,3.432,2.216c-0.461-0.597-1.037-1.344-1.084-1.709c1.143,0.345,2.762,1.458,3.515,2.118&#xA;&#x9;&#x9;&#x9;c-0.253-0.361-0.351-1.008-0.427-1.313c0.222,0.109,0.777,0.357,1.367,0.719L54.68,93.4c0.863,0.533,0.161,0.625,1.018,1.063&#xA;&#x9;&#x9;&#x9;l0.972-0.368c0.075-0.109-0.354,0.95-0.583,1.569C54.763,97.771,51.47,98.372,49.934,98.134L49.934,98.134z"></path>
&#x9;&#x9;<path fill="#134C0F" stroke="#FFFFFF" stroke-width="0.0762" d="M102.525,75.188c1.751-2.857,1.086-5.637,1.151-6.59&#xA;&#x9;&#x9;&#x9;c-0.228,0.551-1.24,1.491-1.699,1.689c-0.977,0.423-2.354,1.52-3.248,3.915c0.291-1.234,0.489-2.415,0.62-3.49&#xA;&#x9;&#x9;&#x9;c0.875-0.322,2.202-0.856,3.126-2.144c2.056-2.87-0.116-7.396-0.482-8.123c-0.403,2.52-2.654,3.78-2.313,6.872&#xA;&#x9;&#x9;&#x9;c0.025,0.579-0.04,0.938-0.148,1.297c0.055-1.132,0.021-2.036-0.059-2.593c-0.055-0.396-0.137-0.72-0.225-0.961&#xA;&#x9;&#x9;&#x9;c0.1-0.178,0.185-0.442,0.359-0.725c0.324-0.529,1.237-3.855-1.013-6.275c-0.249-0.752-3.453-2.606-4.186-2.408&#xA;&#x9;&#x9;&#x9;c-0.169,0.426,0.211,3.752,0.802,5.162c0.032,0.816,2.92,4.068,3.514,4.368c0.019,0.013,0.029,0.013,0.047,0.02&#xA;&#x9;&#x9;&#x9;c0.003,0.264,0.033,0.615,0.104,1.067c0.104,0.743,0.217,2.42-0.016,4.62c0.042-0.698,0.024-1.317,0.005-1.756&#xA;&#x9;&#x9;&#x9;c0.4-3.619-3.604-6.276-4.946-8.794c-0.204,1.631-0.196,5.938,0.971,7.054c1.643,2.633,3.267,1.886,3.745,5.139&#xA;&#x9;&#x9;&#x9;c-0.104,0.614-0.238,1.258-0.404,1.921c0.106-3.56-4.1-6.027-4.831-9.621c-0.656,1.77-0.979,6.14-0.172,7.797&#xA;&#x9;&#x9;&#x9;c1.292,3.024,3.429,2.991,3.711,5.68c-0.45,1.064-1,2.146-1.659,3.225c-0.2,0.328-0.396,0.638-0.591,0.936&#xA;&#x9;&#x9;&#x9;c0.781-1.434,1.211-2.959,0.783-3.904c0.544-3.305-3.401-6.041-3.344-6.536c-0.926,0.86-0.915,4.823-0.908,6.345&#xA;&#x9;&#x9;&#x9;c0.005,0.896,1.616,5.711,1.788,6.438c0.069-0.072,0.136-0.151,0.205-0.229c-0.809,1.063-1.588,1.925-2.374,2.67&#xA;&#x9;&#x9;&#x9;c1.004-1.262,1.587-3.324,1.109-4.182c0.051-0.78-0.607-3.707-1.207-4.441c-0.72,1.795-1.663,2.707-1.917,3.709&#xA;&#x9;&#x9;&#x9;c-1.684,1.604-1.775,5.355-1.688,7.698c0.975-0.529,2.197-1.573,2.726-1.92c-0.851,0.704-1.729,1.324-2.693,1.956&#xA;&#x9;&#x9;&#x9;c-1.413,0.933-2.882,1.655-4.304,2.215c0.576-0.326,1.117-0.667,1.563-0.883c0.651,0.095,1.968-1.793,2.222-2.788&#xA;&#x9;&#x9;&#x9;c0.37-0.604,0.04-3.985,0.074-4.622c-1.142,0.394-2.812,1.384-3.801,2.894c-1.19,2.08-2.443,3.803-2.207,6.137&#xA;&#x9;&#x9;&#x9;c-1.187,0.35-2.3,0.59-3.275,0.74c1.246-0.264,3.293-2.379,3.521-5.361c-0.57-0.014-4.146,1.354-4.999,2.446&#xA;&#x9;&#x9;&#x9;c-0.692,0.893-1.105,2.71-1.195,3.149l-0.021,0.002l-0.721,1.414l0.261-0.023c0.091-0.013,0.184-0.026,0.273-0.041&#xA;&#x9;&#x9;&#x9;c0.085,0.553,2.136,2.191,2.771,2.66c2.235,1.644,4.056,1.27,4.881,1.091c0.808-0.174,3.047-1.608,3.729-1.676&#xA;&#x9;&#x9;&#x9;c-0.092-0.432-0.715-0.687-0.904-0.879c-0.337-0.335-1.193-0.513-2.3-0.948c1.67,0.648,3.26,0.287,3.792,0.18&#xA;&#x9;&#x9;&#x9;c1.783-0.393,4.856-2.508,5.522-2.569c-1.089-1.017-5.915-0.998-6.571-1.053c-0.431,0.235-0.554-0.137-1.854,0.517&#xA;&#x9;&#x9;&#x9;c-0.867,0.414-1.853,0.802-2.499,1.04c1.599-0.597,3.313-1.391,5.177-2.465c1.329,1.036,3.407,0.912,4.494,0.679&#xA;&#x9;&#x9;&#x9;c1.102-0.229,6.046-2.739,7.438-5.013c-1.444,0.749-3.977-0.694-4.703-0.553c-0.26,0.063-0.84,0.106-1.224,0.139&#xA;&#x9;&#x9;&#x9;c0.152-0.172,0.304-0.344,0.452-0.523c0.498-0.055,2.031-0.176,2.858-0.347c0.851-0.199,2.216,0.014,3.758-2.501&#xA;&#x9;&#x9;&#x9;c1.415-2.31,2.276-4.489,2.95-4.845c-1.161,0.846-1.87,0.189-3.516,0.96c-0.605,0.281-1.724,0.637-2.096,0.701&#xA;&#x9;&#x9;&#x9;c-0.102,0.237-0.368,0.726-0.629,1.178c1.22-2.156,2.039-4.479,2.575-6.659c-0.133,1.141-0.303,2.046-1.686,4.956&#xA;&#x9;&#x9;&#x9;C98.973,79.332,101.188,77.364,102.525,75.188z M77.229,93.803c-0.383,0.058-0.74,0.1-1.073,0.13L77.229,93.803z M81.525,94.938&#xA;&#x9;&#x9;&#x9;c0.366,0.271,0.74,0.473,1.112,0.626c-0.072-0.029-0.145-0.058-0.222-0.089c-1.324-0.557-3.001-1.08-4.58-0.498&#xA;&#x9;&#x9;&#x9;c-0.89,0.313-2.511,0.315-3.26,0.378c1.912-0.278,3.89-0.693,6.06-1.46C80.7,94.332,81.327,94.793,81.525,94.938z M95.637,81.896&#xA;&#x9;&#x9;&#x9;c-0.769,1.255-1.729,2.735-2.532,3.664c0.859-1.079,1.697-2.306,2.574-3.731C95.666,81.849,95.65,81.874,95.637,81.896z"></path>
&#x9;&#x9;<rect x="57.479" y="91.849" fill="#FF0000" width="16.067" height="2.571"></rect>
&#x9;&#x9;<rect x="57.479" y="94.803" fill="#FFFFFF" width="16.067" height="2.569"></rect>
&#x9;&#x9;<rect x="57.479" y="97.757" fill="#0000FF" width="16.067" height="2.571"></rect>
&#x9;</g>
&#x9;<g>
&#x9;&#x9;<polygon fill="#111111" points="82.045,113.621 83.867,112.938 81.793,110.228 &#x9;&#x9;"></polygon>
&#x9;&#x9;<path fill="#111111" d="M15.281,80.125c0.958-0.273,1.632-0.659,2.023-1.159c0.391-0.502,0.508-1.025,0.352-1.577&#xA;&#x9;&#x9;&#x9;c-0.158-0.552-0.535-0.935-1.125-1.146c-0.592-0.215-1.378-0.183-2.36,0.101c-0.969,0.278-1.641,0.655-2.02,1.139&#xA;&#x9;&#x9;&#x9;c-0.378,0.48-0.485,1.005-0.324,1.575c0.165,0.57,0.537,0.96,1.119,1.174C13.528,80.438,14.309,80.405,15.281,80.125z"></path>
&#x9;&#x9;<polygon fill="#111111" points="18.761,92.859 22.034,91.931 20.997,90.284 &#x9;&#x9;"></polygon>
&#x9;&#x9;<polygon fill="#111111" points="13.739,61.34 13.88,59.4 10.552,60.141 &#x9;&#x9;"></polygon>
&#x9;&#x9;<polygon fill="#111111" points="48.788,12.262 48.806,15.664 50.67,15.104 &#x9;&#x9;"></polygon>
&#x9;&#x9;<path fill="#111111" d="M54.22,111.744c-0.11-0.046-0.448-0.134-1.018-0.264l-1.093-0.256l-0.5,2.177l1.035,0.239&#xA;&#x9;&#x9;&#x9;c0.674,0.154,1.103,0.217,1.285,0.185c0.184-0.031,0.342-0.123,0.477-0.273c0.134-0.149,0.231-0.352,0.291-0.607&#xA;&#x9;&#x9;&#x9;c0.065-0.289,0.056-0.538-0.027-0.743C54.587,111.995,54.436,111.841,54.22,111.744z"></path>
&#x9;&#x9;<path fill="#111111" d="M29.957,29.384c0.112-0.216,0.161-0.44,0.146-0.67c-0.015-0.231-0.127-0.519-0.34-0.864&#xA;&#x9;&#x9;&#x9;c-0.21-0.345-0.563-0.758-1.045-1.234c-0.486-0.479-0.891-0.809-1.219-0.995s-0.625-0.29-0.894-0.308&#xA;&#x9;&#x9;&#x9;c-0.269-0.019-0.522,0.041-0.762,0.184c-0.181,0.104-0.478,0.365-0.888,0.781l-0.453,0.461l4.149,4.089l0.754-0.765&#xA;&#x9;&#x9;&#x9;C29.688,29.775,29.873,29.549,29.957,29.384z"></path>
&#x9;&#x9;<polygon fill="#111111" points="59.095,116.357 61.034,116.518 60.323,113.184 &#x9;&#x9;"></polygon>
&#x9;&#x9;<polygon fill="#111111" points="46.252,113.384 46.516,109.984 44.438,112.682 &#x9;&#x9;"></polygon>
&#x9;&#x9;<path fill="#111111" d="M41.899,108.691c0.152-0.282,0.209-0.551,0.174-0.808c-0.035-0.252-0.143-0.461-0.323-0.617&#xA;&#x9;&#x9;&#x9;c-0.132-0.116-0.427-0.298-0.884-0.544l-0.61-0.329l-1.185,2.197l0.695,0.374c0.498,0.269,0.855,0.406,1.066,0.418&#xA;&#x9;&#x9;&#x9;c0.212,0.009,0.412-0.044,0.602-0.167C41.62,109.094,41.774,108.922,41.899,108.691z"></path>
&#x9;&#x9;<path fill="#111111" d="M112.321,54.042c0.119,0.212,0.279,0.376,0.48,0.491c0.202,0.111,0.503,0.176,0.911,0.186&#xA;&#x9;&#x9;&#x9;c0.405,0.012,0.94-0.055,1.604-0.201c0.664-0.146,1.164-0.304,1.5-0.475c0.335-0.173,0.584-0.366,0.744-0.582&#xA;&#x9;&#x9;&#x9;c0.164-0.214,0.25-0.459,0.265-0.738c0.012-0.209-0.044-0.6-0.169-1.174l-0.14-0.631l-5.692,1.243l0.229,1.049&#xA;&#x9;&#x9;&#x9;C112.14,53.604,112.228,53.88,112.321,54.042z"></path>
&#x9;&#x9;<path fill="#111111" d="M97.935,28.657c0.418,0.394,0.935,0.534,1.552,0.416c0.617-0.117,1.276-0.546,1.979-1.285&#xA;&#x9;&#x9;&#x9;c0.693-0.731,1.081-1.401,1.162-2.007c0.083-0.605-0.092-1.114-0.521-1.522c-0.431-0.407-0.95-0.555-1.559-0.44&#xA;&#x9;&#x9;&#x9;c-0.608,0.115-1.263,0.539-1.958,1.272c-0.686,0.724-1.07,1.399-1.153,2.028C97.354,27.75,97.52,28.262,97.935,28.657z"></path>
&#x9;&#x9;<path fill="#111111" d="M64.462,3.984C31.317,3.984,4.446,30.855,4.446,64c0,33.146,26.871,60.016,60.016,60.016&#xA;&#x9;&#x9;&#x9;c33.146,0,60.016-26.869,60.016-60.016C124.478,30.855,97.609,3.984,64.462,3.984z M118.477,62.148&#xA;&#x9;&#x9;&#x9;c-0.473-0.322-1.231-0.479-2.279-0.465c-1.114,0.014-1.902,0.185-2.371,0.515c-0.47,0.331-0.699,0.754-0.693,1.272&#xA;&#x9;&#x9;&#x9;c0.005,0.383,0.158,0.708,0.463,0.979c0.304,0.271,0.777,0.465,1.425,0.576l-0.53,1.398c-0.963-0.199-1.682-0.546-2.153-1.04&#xA;&#x9;&#x9;&#x9;c-0.471-0.491-0.71-1.118-0.722-1.882c-0.012-0.946,0.378-1.729,1.169-2.348c0.791-0.619,1.878-0.938,3.262-0.954&#xA;&#x9;&#x9;&#x9;c1.464-0.018,2.604,0.273,3.422,0.876c0.816,0.603,1.231,1.403,1.243,2.401c0.013,0.87-0.297,1.581-0.927,2.135&#xA;&#x9;&#x9;&#x9;c-0.371,0.328-0.909,0.577-1.61,0.749l-0.438-1.419c0.454-0.09,0.812-0.271,1.071-0.541c0.262-0.271,0.39-0.598,0.385-0.979&#xA;&#x9;&#x9;&#x9;C119.188,62.896,118.95,62.471,118.477,62.148z M120.288,58.336l-8.74,0.996l-0.164-1.432l8.74-0.994L120.288,58.336z&#xA;&#x9;&#x9;&#x9; M119.225,51.764c0.127,0.579,0.168,1.033,0.124,1.36c-0.059,0.44-0.245,0.849-0.561,1.224c-0.315,0.373-0.731,0.695-1.248,0.969&#xA;&#x9;&#x9;&#x9;c-0.518,0.271-1.176,0.494-1.981,0.67c-0.707,0.156-1.331,0.219-1.875,0.188c-0.664-0.039-1.224-0.176-1.683-0.414&#xA;&#x9;&#x9;&#x9;c-0.345-0.181-0.647-0.459-0.901-0.838c-0.188-0.283-0.34-0.686-0.45-1.205l-0.579-2.646l8.594-1.875L119.225,51.764z&#xA;&#x9;&#x9;&#x9; M116.48,42.908l-4.457,1.678c-0.707,0.268-1.159,0.456-1.356,0.568c-0.315,0.185-0.535,0.424-0.657,0.717&#xA;&#x9;&#x9;&#x9;c-0.121,0.293-0.112,0.629,0.029,1.005c0.145,0.382,0.348,0.634,0.613,0.755c0.267,0.121,0.549,0.148,0.844,0.082&#xA;&#x9;&#x9;&#x9;c0.294-0.066,0.768-0.221,1.42-0.466l4.555-1.714l0.507,1.347l-4.324,1.626c-0.987,0.372-1.698,0.6-2.137,0.68&#xA;&#x9;&#x9;&#x9;c-0.436,0.08-0.83,0.075-1.184-0.015c-0.354-0.09-0.677-0.269-0.967-0.532c-0.289-0.266-0.535-0.662-0.732-1.189&#xA;&#x9;&#x9;&#x9;c-0.239-0.637-0.33-1.154-0.273-1.553c0.059-0.396,0.196-0.746,0.415-1.045c0.218-0.302,0.474-0.541,0.771-0.723&#xA;&#x9;&#x9;&#x9;c0.438-0.265,1.119-0.572,2.039-0.918l4.393-1.652L116.48,42.908z M114.275,38.175l0.675,1.265l-4.919,2.617&#xA;&#x9;&#x9;&#x9;c-0.643,0.34-1.16,0.559-1.555,0.65c-0.519,0.117-1,0.087-1.444-0.09c-0.444-0.178-0.809-0.53-1.093-1.061&#xA;&#x9;&#x9;&#x9;c-0.329-0.621-0.369-1.213-0.117-1.775c0.25-0.563,0.791-1.068,1.618-1.512l0.808,1.107c-0.438,0.251-0.724,0.471-0.857,0.66&#xA;&#x9;&#x9;&#x9;c-0.206,0.286-0.234,0.568-0.085,0.85c0.149,0.283,0.355,0.43,0.618,0.44c0.261,0.011,0.707-0.149,1.335-0.485L114.275,38.175z&#xA;&#x9;&#x9;&#x9; M104.991,28.52c0.349-0.277,0.743-0.457,1.177-0.537c0.432-0.08,0.852-0.03,1.251,0.146c0.398,0.178,0.769,0.48,1.109,0.911&#xA;&#x9;&#x9;&#x9;c0.554,0.703,0.78,1.38,0.682,2.035c-0.099,0.653-0.46,1.241-1.08,1.761l-0.953-1.082c0.316-0.328,0.491-0.632,0.521-0.914&#xA;&#x9;&#x9;&#x9;c0.029-0.281-0.081-0.581-0.333-0.9c-0.26-0.328-0.546-0.52-0.857-0.572c-0.201-0.035-0.393,0.02-0.571,0.158&#xA;&#x9;&#x9;&#x9;c-0.163,0.129-0.259,0.295-0.284,0.5c-0.036,0.26,0.08,0.727,0.355,1.402c0.273,0.676,0.43,1.213,0.467,1.61&#xA;&#x9;&#x9;&#x9;c0.034,0.397-0.035,0.79-0.216,1.173c-0.179,0.385-0.486,0.748-0.923,1.091c-0.395,0.313-0.835,0.517-1.321,0.612&#xA;&#x9;&#x9;&#x9;c-0.486,0.095-0.94,0.047-1.367-0.146c-0.425-0.194-0.828-0.533-1.213-1.019c-0.56-0.707-0.784-1.409-0.682-2.106&#xA;&#x9;&#x9;&#x9;c0.104-0.697,0.513-1.388,1.227-2.07l1,0.992c-0.401,0.426-0.633,0.824-0.685,1.194c-0.054,0.37,0.055,0.728,0.326,1.07&#xA;&#x9;&#x9;&#x9;c0.286,0.364,0.599,0.563,0.935,0.598c0.336,0.035,0.63-0.049,0.884-0.25c0.164-0.128,0.271-0.276,0.325-0.444&#xA;&#x9;&#x9;&#x9;s0.047-0.383-0.021-0.644c-0.049-0.178-0.188-0.557-0.413-1.144c-0.293-0.75-0.4-1.354-0.323-1.813&#xA;&#x9;&#x9;&#x9;C104.116,29.486,104.444,28.951,104.991,28.52z M100.574,22.286c0.447-0.065,0.854-0.046,1.215,0.06&#xA;&#x9;&#x9;&#x9;c0.48,0.137,0.934,0.405,1.353,0.805c0.763,0.724,1.096,1.592,0.999,2.609c-0.095,1.018-0.637,2.045-1.623,3.084&#xA;&#x9;&#x9;&#x9;c-0.978,1.03-1.969,1.621-2.975,1.771c-1.007,0.152-1.889-0.133-2.647-0.854c-0.769-0.729-1.105-1.599-1.01-2.609&#xA;&#x9;&#x9;&#x9;c0.095-1.008,0.625-2.021,1.589-3.036c0.618-0.65,1.213-1.122,1.79-1.413C99.689,22.49,100.125,22.35,100.574,22.286z&#xA;&#x9;&#x9;&#x9; M96.333,17.816c0.487,0.338,0.825,0.644,1.016,0.912c0.256,0.364,0.396,0.791,0.418,1.278c0.021,0.489-0.063,1.009-0.257,1.56&#xA;&#x9;&#x9;&#x9;c-0.192,0.55-0.523,1.162-0.997,1.838c-0.414,0.594-0.83,1.063-1.249,1.41c-0.513,0.425-1.017,0.705-1.516,0.84&#xA;&#x9;&#x9;&#x9;c-0.376,0.104-0.787,0.104-1.229-0.002c-0.332-0.079-0.716-0.271-1.151-0.574l-2.221-1.549l5.027-7.217L96.333,17.816z&#xA;&#x9;&#x9;&#x9; M82.287,10.803c0.723,0.239,1.224,0.488,1.502,0.746c0.278,0.26,0.451,0.613,0.521,1.063s0.023,0.92-0.141,1.414&#xA;&#x9;&#x9;&#x9;c-0.205,0.627-0.527,1.094-0.961,1.404c-0.435,0.311-0.963,0.42-1.593,0.329c0.225,0.312,0.392,0.625,0.499,0.942&#xA;&#x9;&#x9;&#x9;c0.107,0.316,0.217,0.855,0.329,1.613l0.23,1.537l6.184-6.386l1.359,0.679l-1.381,9.145l-1.4-0.7l0.341-2.065l-2.551-1.273&#xA;&#x9;&#x9;&#x9;l-1.419,1.525l-1.199-0.6l-1.512-0.5l-0.386-2.143c-0.135-0.766-0.238-1.254-0.313-1.465c-0.071-0.211-0.173-0.373-0.295-0.484&#xA;&#x9;&#x9;&#x9;c-0.124-0.111-0.341-0.218-0.655-0.322l-0.276-0.091l-1.154,3.485l-1.367-0.452l2.766-8.351L82.287,10.803z M72.115,8.354&#xA;&#x9;&#x9;&#x9;l5.563,1.051l-0.274,1.464l-2.073-0.392l-1.358,7.182l-1.413-0.268l1.357-7.182l-2.078-0.393L72.115,8.354z M68.686,13.771&#xA;&#x9;&#x9;&#x9;c-0.089-0.152-0.254-0.289-0.495-0.412c-0.162-0.08-0.538-0.232-1.127-0.45c-0.756-0.283-1.274-0.604-1.566-0.966&#xA;&#x9;&#x9;&#x9;c-0.409-0.508-0.592-1.111-0.548-1.807c0.024-0.445,0.152-0.859,0.381-1.236c0.229-0.375,0.544-0.654,0.941-0.836&#xA;&#x9;&#x9;&#x9;c0.398-0.182,0.872-0.256,1.418-0.221c0.894,0.051,1.55,0.334,1.974,0.844c0.423,0.511,0.619,1.168,0.596,1.977l-1.438-0.007&#xA;&#x9;&#x9;&#x9;c-0.035-0.455-0.147-0.786-0.34-0.996c-0.189-0.21-0.486-0.327-0.892-0.353c-0.418-0.023-0.752,0.063-0.999,0.26&#xA;&#x9;&#x9;&#x9;c-0.161,0.127-0.248,0.304-0.262,0.531c-0.012,0.209,0.047,0.391,0.184,0.547c0.168,0.199,0.6,0.42,1.283,0.664&#xA;&#x9;&#x9;&#x9;c0.688,0.248,1.19,0.488,1.514,0.727c0.32,0.236,0.565,0.55,0.732,0.939c0.166,0.389,0.234,0.859,0.199,1.416&#xA;&#x9;&#x9;&#x9;c-0.029,0.504-0.173,0.967-0.425,1.393c-0.254,0.425-0.595,0.732-1.02,0.921c-0.427,0.188-0.949,0.265-1.567,0.228&#xA;&#x9;&#x9;&#x9;c-0.897-0.054-1.572-0.35-2.024-0.893c-0.451-0.541-0.694-1.307-0.729-2.294l1.408-0.085c0.05,0.583,0.195,1.02,0.438,1.307&#xA;&#x9;&#x9;&#x9;c0.238,0.286,0.579,0.442,1.017,0.469c0.463,0.029,0.818-0.072,1.068-0.299c0.249-0.229,0.384-0.502,0.402-0.828&#xA;&#x9;&#x9;&#x9;C68.814,14.104,68.777,13.925,68.686,13.771z M63.131,7.908l0.314,8.792l-1.436,0.052L61.692,7.96L63.131,7.908z M53.813,10.79&#xA;&#x9;&#x9;&#x9;c0.207-0.749,0.582-1.354,1.119-1.815c0.412-0.354,0.954-0.58,1.629-0.677c0.873-0.126,1.59,0.003,2.147,0.386&#xA;&#x9;&#x9;&#x9;s0.965,0.963,1.222,1.743l-1.369,0.53c-0.162-0.414-0.396-0.725-0.707-0.934c-0.31-0.207-0.67-0.281-1.08-0.224&#xA;&#x9;&#x9;&#x9;c-0.623,0.091-1.082,0.404-1.379,0.944s-0.379,1.288-0.24,2.247c0.147,1.034,0.445,1.78,0.892,2.245&#xA;&#x9;&#x9;&#x9;c0.447,0.464,0.972,0.652,1.575,0.565c0.298-0.043,0.587-0.157,0.865-0.346c0.279-0.188,0.512-0.399,0.697-0.636l-0.16-1.105&#xA;&#x9;&#x9;&#x9;l-1.631,0.234l-0.209-1.467l3.067-0.441l0.499,3.468c-0.249,0.4-0.637,0.777-1.162,1.128c-0.527,0.352-1.082,0.57-1.663,0.654&#xA;&#x9;&#x9;&#x9;c-0.737,0.105-1.407,0.007-2.01-0.296c-0.603-0.304-1.095-0.791-1.474-1.462c-0.377-0.672-0.627-1.424-0.746-2.26&#xA;&#x9;&#x9;&#x9;C53.569,12.368,53.608,11.54,53.813,10.79z M47.483,10.512l1.457-0.438l5.27,7.599l-1.498,0.452l-1.172-1.733l-2.729,0.82&#xA;&#x9;&#x9;&#x9;l0.014,2.083l-1.459,0.44L47.483,10.512z M39.016,13.979l3.768,4.846l-1.45-5.963l1.944-0.936l3.814,7.926l-1.204,0.578&#xA;&#x9;&#x9;&#x9;l-3.002-6.238l1.729,6.853l-1.25,0.601l-4.272-5.627l3.002,6.237l-1.204,0.581l-3.816-7.921L39.016,13.979z M32.362,17.893&#xA;&#x9;&#x9;&#x9;l0.916,1.172l-3.03,2.365l1.202,1.537l2.818-2.199l0.912,1.166l-2.82,2.202l1.475,1.888l3.137-2.451l0.912,1.168l-4.271,3.336&#xA;&#x9;&#x9;&#x9;l-5.416-6.934L32.362,17.893z M24.275,24.846c0.417-0.422,0.775-0.705,1.072-0.848c0.402-0.191,0.846-0.257,1.331-0.197&#xA;&#x9;&#x9;&#x9;c0.485,0.061,0.98,0.232,1.493,0.518c0.509,0.283,1.058,0.713,1.644,1.291c0.517,0.51,0.91,1,1.18,1.472&#xA;&#x9;&#x9;&#x9;c0.333,0.577,0.523,1.121,0.57,1.634c0.041,0.389-0.029,0.793-0.207,1.213c-0.135,0.313-0.39,0.658-0.762,1.038l-1.9,1.929&#xA;&#x9;&#x9;&#x9;l-6.268-6.174L24.275,24.846z M16.554,34.749l6.519,0.739L18.141,32.3l0.726-1.123l7.387,4.777l-0.784,1.212l-6.377-0.703&#xA;&#x9;&#x9;&#x9;l4.817,3.114l-0.725,1.122l-7.387-4.776L16.554,34.749z M13.207,40.809c0.433-0.957,1.145-1.558,2.136-1.802&#xA;&#x9;&#x9;&#x9;c0.993-0.243,2.142-0.071,3.447,0.519c1.295,0.584,2.179,1.328,2.652,2.227c0.474,0.9,0.496,1.827,0.066,2.782&#xA;&#x9;&#x9;&#x9;c-0.437,0.965-1.147,1.569-2.132,1.81c-0.984,0.243-2.114,0.075-3.392-0.5c-0.814-0.369-1.455-0.777-1.921-1.225&#xA;&#x9;&#x9;&#x9;c-0.341-0.333-0.615-0.699-0.826-1.102c-0.209-0.401-0.324-0.791-0.342-1.166C12.861,41.852,12.967,41.337,13.207,40.809z&#xA;&#x9;&#x9;&#x9; M11.404,45.751l8.357,2.745l-0.447,1.368l-8.359-2.745L11.404,45.751z M9.579,51.684c0.185-0.852,0.649-1.475,1.386-1.871&#xA;&#x9;&#x9;&#x9;c0.438-0.234,1.017-0.356,1.739-0.363l0.105,1.482c-0.464-0.017-0.854,0.078-1.169,0.283c-0.317,0.204-0.515,0.493-0.597,0.867&#xA;&#x9;&#x9;&#x9;c-0.113,0.516,0.022,0.984,0.41,1.406c0.385,0.422,1.091,0.746,2.113,0.971c1.086,0.238,1.896,0.25,2.423,0.036&#xA;&#x9;&#x9;&#x9;c0.533-0.214,0.854-0.575,0.965-1.082c0.081-0.373,0.005-0.728-0.227-1.062c-0.236-0.334-0.652-0.627-1.258-0.884l0.833-1.245&#xA;&#x9;&#x9;&#x9;c0.894,0.414,1.514,0.914,1.861,1.502c0.348,0.584,0.44,1.25,0.276,1.998c-0.203,0.926-0.759,1.6-1.67,2.021&#xA;&#x9;&#x9;&#x9;c-0.911,0.424-2.041,0.486-3.392,0.188c-1.432-0.313-2.475-0.857-3.135-1.63C9.585,53.531,9.362,52.66,9.579,51.684z&#xA;&#x9;&#x9;&#x9; M8.563,59.215l8.982-2.201l-0.114,1.562l-2.04,0.473l-0.208,2.843l1.95,0.731l-0.11,1.521L8.455,60.73L8.563,59.215z&#xA;&#x9;&#x9;&#x9; M8.361,64.85l8.793-0.24l0.039,1.438l-8.794,0.24L8.361,64.85z M8.647,71.057c-0.112-0.861,0.114-1.605,0.674-2.229&#xA;&#x9;&#x9;&#x9;c0.332-0.368,0.835-0.68,1.514-0.929l0.598,1.358c-0.441,0.142-0.777,0.36-1.004,0.659c-0.227,0.3-0.317,0.639-0.269,1.017&#xA;&#x9;&#x9;&#x9;c0.069,0.523,0.354,0.92,0.861,1.186c0.507,0.268,1.279,0.333,2.319,0.198c1.103-0.145,1.866-0.405,2.294-0.788&#xA;&#x9;&#x9;&#x9;c0.427-0.383,0.604-0.828,0.541-1.344c-0.049-0.379-0.241-0.687-0.573-0.921c-0.334-0.233-0.825-0.369-1.482-0.405l0.364-1.453&#xA;&#x9;&#x9;&#x9;c0.979,0.088,1.732,0.351,2.259,0.784c0.525,0.435,0.837,1.026,0.936,1.788c0.121,0.938-0.177,1.76-0.888,2.467&#xA;&#x9;&#x9;&#x9;c-0.713,0.705-1.756,1.149-3.128,1.328c-1.452,0.187-2.619,0.026-3.501-0.476C9.281,72.793,8.776,72.05,8.647,71.057z&#xA;&#x9;&#x9;&#x9; M11.131,80.87c-0.345-0.362-0.599-0.824-0.757-1.381c-0.289-1.009-0.133-1.928,0.465-2.755c0.599-0.827,1.588-1.437,2.965-1.831&#xA;&#x9;&#x9;&#x9;c1.365-0.394,2.519-0.397,3.462-0.018c0.944,0.379,1.56,1.075,1.849,2.079c0.29,1.019,0.137,1.939-0.456,2.76&#xA;&#x9;&#x9;&#x9;c-0.597,0.818-1.566,1.424-2.912,1.809c-0.862,0.247-1.614,0.35-2.258,0.308c-0.476-0.028-0.922-0.132-1.343-0.304&#xA;&#x9;&#x9;&#x9;C11.725,81.364,11.387,81.144,11.131,80.87z M15.239,88.792c-0.44-0.028-0.833-0.177-1.178-0.445&#xA;&#x9;&#x9;&#x9;c-0.344-0.268-0.63-0.651-0.856-1.149c-0.367-0.815-0.424-1.529-0.168-2.141c0.255-0.61,0.746-1.095,1.473-1.445l0.663,1.277&#xA;&#x9;&#x9;&#x9;c-0.386,0.24-0.628,0.496-0.726,0.763c-0.096,0.264-0.063,0.584,0.104,0.951c0.172,0.382,0.402,0.637,0.695,0.767&#xA;&#x9;&#x9;&#x9;c0.186,0.081,0.384,0.077,0.591-0.019c0.19-0.085,0.325-0.224,0.401-0.416c0.095-0.239,0.093-0.724-0.01-1.446&#xA;&#x9;&#x9;&#x9;c-0.102-0.721-0.122-1.278-0.062-1.677c0.061-0.396,0.225-0.755,0.491-1.084c0.267-0.329,0.654-0.605,1.161-0.835&#xA;&#x9;&#x9;&#x9;c0.461-0.207,0.938-0.301,1.432-0.274c0.495,0.025,0.924,0.186,1.289,0.477c0.367,0.289,0.677,0.714,0.932,1.278&#xA;&#x9;&#x9;&#x9;c0.37,0.82,0.42,1.559,0.149,2.209c-0.269,0.651-0.833,1.225-1.692,1.714l-0.729-1.207c0.495-0.313,0.812-0.646,0.956-0.994&#xA;&#x9;&#x9;&#x9;c0.14-0.345,0.122-0.718-0.059-1.117c-0.19-0.423-0.443-0.691-0.761-0.806s-0.624-0.105-0.917,0.025&#xA;&#x9;&#x9;&#x9;c-0.189,0.086-0.332,0.205-0.424,0.354c-0.093,0.15-0.137,0.358-0.135,0.63c0.005,0.183,0.047,0.582,0.125,1.205&#xA;&#x9;&#x9;&#x9;c0.103,0.803,0.062,1.414-0.125,1.839c-0.261,0.6-0.709,1.04-1.345,1.326C16.104,88.738,15.677,88.819,15.239,88.792z&#xA;&#x9;&#x9;&#x9; M17.422,94.581l-0.811-1.284l5.917-7.107l0.835,1.322l-1.359,1.594l1.521,2.406l2.004-0.567l0.816,1.29L17.422,94.581z&#xA;&#x9;&#x9;&#x9; M39.186,110.353l-0.826-0.444l-1.575,2.919l-1.265-0.681l4.172-7.742l2.035,1.094c0.77,0.416,1.25,0.725,1.442,0.929&#xA;&#x9;&#x9;&#x9;c0.296,0.313,0.46,0.726,0.495,1.245c0.031,0.52-0.118,1.088-0.449,1.703c-0.256,0.477-0.542,0.837-0.859,1.086&#xA;&#x9;&#x9;&#x9;c-0.313,0.249-0.627,0.407-0.941,0.477c-0.314,0.07-0.6,0.075-0.855,0.014C40.217,110.859,39.759,110.66,39.186,110.353z&#xA;&#x9;&#x9;&#x9; M47.462,117.585l-1.458-0.566l0.143-2.088l-2.656-1.026l-1.271,1.649l-1.423-0.551l5.765-7.2l1.418,0.55L47.462,117.585z&#xA;&#x9;&#x9;&#x9; M56.167,113.164c-0.146,0.643-0.422,1.137-0.825,1.486c-0.403,0.349-0.922,0.508-1.556,0.477&#xA;&#x9;&#x9;&#x9;c0.252,0.287,0.447,0.586,0.586,0.891c0.136,0.309,0.296,0.833,0.479,1.578l0.461,1.864l-1.677-0.384l-0.584-2.101&#xA;&#x9;&#x9;&#x9;c-0.208-0.749-0.356-1.225-0.45-1.43c-0.093-0.204-0.205-0.356-0.338-0.453c-0.134-0.099-0.361-0.187-0.686-0.26l-0.284-0.066&#xA;&#x9;&#x9;&#x9;l-0.822,3.579l-1.401-0.321l1.971-8.573l2.949,0.68c0.744,0.17,1.267,0.37,1.566,0.602c0.301,0.233,0.506,0.566,0.619,1.007&#xA;&#x9;&#x9;&#x9;C56.287,112.184,56.284,112.658,56.167,113.164z M61.828,120.076l-0.457-2.043l-2.839-0.236l-0.752,1.945l-1.521-0.128&#xA;&#x9;&#x9;&#x9;l3.492-8.537l1.517,0.127l2.116,9.004L61.828,120.076z M70.144,119.592c-0.551,0.313-1.119,0.487-1.706,0.524&#xA;&#x9;&#x9;&#x9;c-0.744,0.051-1.403-0.102-1.981-0.447c-0.579-0.348-1.03-0.871-1.356-1.571c-0.325-0.698-0.517-1.469-0.571-2.312&#xA;&#x9;&#x9;&#x9;c-0.063-0.914,0.042-1.736,0.304-2.467c0.265-0.732,0.683-1.307,1.256-1.729c0.438-0.317,0.995-0.502,1.675-0.547&#xA;&#x9;&#x9;&#x9;c0.881-0.059,1.587,0.126,2.111,0.547c0.526,0.425,0.889,1.037,1.083,1.832l-1.405,0.425c-0.128-0.425-0.338-0.751-0.632-0.982&#xA;&#x9;&#x9;&#x9;c-0.291-0.232-0.646-0.332-1.061-0.307c-0.628,0.04-1.109,0.32-1.445,0.835c-0.34,0.518-0.477,1.257-0.413,2.225&#xA;&#x9;&#x9;&#x9;c0.07,1.04,0.308,1.81,0.719,2.306c0.409,0.496,0.916,0.725,1.526,0.684c0.3-0.019,0.597-0.111,0.888-0.278&#xA;&#x9;&#x9;&#x9;c0.293-0.164,0.542-0.358,0.746-0.582l-0.073-1.113l-1.645,0.109l-0.099-1.479l3.096-0.205l0.229,3.498&#xA;&#x9;&#x9;&#x9;C71.11,118.938,70.697,119.281,70.144,119.592z M78.525,117.51c-0.139,0.339-0.36,0.632-0.663,0.881&#xA;&#x9;&#x9;&#x9;c-0.305,0.247-0.731,0.434-1.281,0.555c-0.664,0.146-1.191,0.161-1.575,0.045c-0.386-0.115-0.71-0.3-0.977-0.56&#xA;&#x9;&#x9;&#x9;s-0.468-0.547-0.603-0.865c-0.199-0.474-0.404-1.19-0.616-2.151l-1.003-4.583l1.405-0.308l1.019,4.651&#xA;&#x9;&#x9;&#x9;c0.161,0.739,0.285,1.214,0.366,1.427c0.138,0.34,0.342,0.591,0.615,0.754s0.605,0.202,0.998,0.116&#xA;&#x9;&#x9;&#x9;c0.398-0.086,0.68-0.255,0.835-0.498c0.16-0.245,0.229-0.521,0.206-0.822c-0.024-0.303-0.11-0.793-0.259-1.473l-1.043-4.757&#xA;&#x9;&#x9;&#x9;l1.405-0.308l0.989,4.513c0.228,1.033,0.349,1.771,0.363,2.213C78.726,116.781,78.665,117.173,78.525,117.51z M86.109,115.811&#xA;&#x9;&#x9;&#x9;l-1.285-1.649l-2.665,1.005l0.152,2.077l-1.428,0.539l-0.509-9.209l1.425-0.539l5.774,7.226L86.109,115.811z M89.803,114.066&#xA;&#x9;&#x9;&#x9;l-1.719-3.278l-4.677-3.302l1.494-0.782l3.101,2.304l-0.16-3.845l1.468-0.77l0.051,5.738l1.712,3.27L89.803,114.066z&#xA;&#x9;&#x9;&#x9; M64.462,108.196c-24.408,0-44.196-19.787-44.196-44.196s19.788-44.195,44.196-44.195S108.658,39.593,108.658,64&#xA;&#x9;&#x9;&#x9;C108.658,88.409,88.871,108.196,64.462,108.196z M111.968,93.61c-0.043,0.436-0.216,0.881-0.518,1.339&#xA;&#x9;&#x9;&#x9;c-0.494,0.745-1.068,1.174-1.722,1.284c-0.65,0.108-1.322-0.051-2.007-0.478l0.729-1.243c0.41,0.197,0.755,0.27,1.03,0.206&#xA;&#x9;&#x9;&#x9;c0.277-0.059,0.526-0.256,0.751-0.597c0.23-0.348,0.322-0.678,0.276-0.992c-0.029-0.202-0.139-0.367-0.329-0.493&#xA;&#x9;&#x9;&#x9;c-0.175-0.115-0.361-0.151-0.563-0.117c-0.256,0.051-0.662,0.309-1.22,0.778c-0.56,0.473-1.018,0.788-1.385,0.949&#xA;&#x9;&#x9;&#x9;c-0.366,0.157-0.761,0.212-1.181,0.162c-0.419-0.051-0.86-0.229-1.324-0.536c-0.421-0.278-0.752-0.634-0.994-1.066&#xA;&#x9;&#x9;&#x9;c-0.242-0.432-0.339-0.879-0.287-1.344c0.052-0.462,0.247-0.952,0.588-1.469c0.496-0.755,1.094-1.188,1.787-1.308&#xA;&#x9;&#x9;&#x9;c0.696-0.117,1.48,0.055,2.354,0.52l-0.631,1.261c-0.533-0.251-0.98-0.343-1.352-0.278c-0.369,0.065-0.674,0.279-0.915,0.646&#xA;&#x9;&#x9;&#x9;c-0.255,0.388-0.345,0.743-0.274,1.073c0.073,0.329,0.241,0.586,0.516,0.762c0.172,0.115,0.348,0.172,0.523,0.168&#xA;&#x9;&#x9;&#x9;c0.176,0,0.378-0.074,0.603-0.221c0.152-0.103,0.472-0.352,0.956-0.75c0.622-0.514,1.163-0.805,1.622-0.873&#xA;&#x9;&#x9;&#x9;c0.646-0.099,1.257,0.046,1.838,0.431c0.374,0.245,0.667,0.563,0.879,0.95C111.927,92.764,112.011,93.175,111.968,93.61z&#xA;&#x9;&#x9;&#x9; M113.801,90.859l-1.338-0.646l1.67-3.464l-1.755-0.846l-1.556,3.22l-1.334-0.645l1.556-3.223l-2.159-1.039l-1.729,3.585&#xA;&#x9;&#x9;&#x9;l-1.335-0.645l2.356-4.882l7.921,3.825L113.801,90.859z M117.869,80.973l-6.871-2.291l-1.131,3.395l-1.406-0.469l1.588-4.76&#xA;&#x9;&#x9;&#x9;l8.276,2.76L117.869,80.973z M119.426,75.255l-9.176,1.146l0.293-1.537l2.081-0.234l0.534-2.797l-1.852-0.952l0.286-1.498&#xA;&#x9;&#x9;&#x9;l8.119,4.377L119.426,75.255z M120.28,69.678l-8.764-0.777l0.128-1.434l8.763,0.776L120.28,69.678z"></path>
&#x9;&#x9;<polygon fill="#111111" points="114.533,72.544 114.167,74.454 117.557,74.104 &#x9;&#x9;"></polygon>
&#x9;&#x9;<path fill="#111111" d="M16.539,44.466c0.908,0.409,1.673,0.55,2.294,0.423c0.623-0.13,1.053-0.455,1.288-0.978&#xA;&#x9;&#x9;&#x9;c0.236-0.522,0.198-1.058-0.117-1.603c-0.313-0.545-0.936-1.026-1.864-1.445c-0.918-0.416-1.68-0.563-2.278-0.439&#xA;&#x9;&#x9;&#x9;c-0.598,0.122-1.021,0.454-1.265,0.994c-0.244,0.541-0.211,1.08,0.096,1.617C15,43.573,15.616,44.05,16.539,44.466z"></path>
&#x9;&#x9;<polygon fill="#111111" points="88.605,15.633 86.284,18.121 88.023,18.991 &#x9;&#x9;"></polygon>
&#x9;&#x9;<path fill="#111111" d="M81.881,14.473c0.187-0.015,0.353-0.091,0.5-0.227c0.147-0.137,0.264-0.331,0.345-0.582&#xA;&#x9;&#x9;&#x9;c0.094-0.281,0.107-0.528,0.044-0.742c-0.064-0.212-0.199-0.378-0.406-0.497c-0.105-0.057-0.434-0.175-0.987-0.358l-1.065-0.354&#xA;&#x9;&#x9;&#x9;l-0.701,2.118l1.012,0.335C81.273,14.386,81.694,14.486,81.881,14.473z"></path>
&#x9;&#x9;<path fill="#111111" d="M92.055,23.75c0.33,0.23,0.583,0.372,0.763,0.43c0.23,0.074,0.46,0.084,0.687,0.03&#xA;&#x9;&#x9;&#x9;c0.224-0.054,0.489-0.213,0.794-0.481c0.305-0.268,0.651-0.68,1.04-1.239c0.389-0.558,0.648-1.013,0.776-1.367&#xA;&#x9;&#x9;&#x9;c0.129-0.354,0.18-0.666,0.15-0.933c-0.024-0.267-0.129-0.508-0.311-0.721c-0.132-0.16-0.439-0.408-0.92-0.744l-0.53-0.369&#xA;&#x9;&#x9;&#x9;l-3.331,4.781L92.055,23.75z"></path>
&#x9;</g>
</g>
</svg>